<svg width="32" height="32" viewBox="0 0 32 32" fill="none" xmlns="http://www.w3.org/2000/svg">
<path fill-rule="evenodd" clip-rule="evenodd" d="M25.1373 8.60204C25.2513 8.48816 25.3418 8.35293 25.4036 8.20408C25.4653 8.05524 25.4972 7.89568 25.4973 7.73453C25.4974 7.57338 25.4657 7.41378 25.4042 7.26486C25.3426 7.11593 25.2523 6.9806 25.1384 6.86657C25.0245 6.75255 24.8893 6.66208 24.7404 6.60031C24.5916 6.53855 24.432 6.50671 24.2709 6.50661C24.1097 6.50651 23.9501 6.53816 23.8012 6.59974C23.6523 6.66132 23.5169 6.75162 23.4029 6.86551L16.0024 14.266L8.60399 6.86551C8.37371 6.63523 8.06139 6.50586 7.73573 6.50586C7.41006 6.50586 7.09774 6.63523 6.86746 6.86551C6.63718 7.09579 6.50781 7.40811 6.50781 7.73377C6.50781 8.05944 6.63718 8.37176 6.86746 8.60204L14.268 16.0004L6.86746 23.3988C6.75344 23.5129 6.66299 23.6482 6.60128 23.7972C6.53957 23.9462 6.50781 24.1059 6.50781 24.2671C6.50781 24.4284 6.53957 24.588 6.60128 24.737C6.66299 24.886 6.75344 25.0214 6.86746 25.1354C7.09774 25.3657 7.41006 25.495 7.73573 25.495C7.89698 25.495 8.05665 25.4633 8.20563 25.4016C8.35461 25.3398 8.48997 25.2494 8.60399 25.1354L16.0024 17.7348L23.4029 25.1354C23.6332 25.3654 23.9454 25.4945 24.2709 25.4943C24.5963 25.4941 24.9084 25.3646 25.1384 25.1343C25.3684 24.904 25.4975 24.5918 25.4973 24.2664C25.4971 23.9409 25.3676 23.6288 25.1373 23.3988L17.7368 16.0004L25.1373 8.60204Z" fill="#99B080"/>
</svg>
