<svg width="45" height="45" viewBox="0 0 45 45" fill="none" xmlns="http://www.w3.org/2000/svg">
<g clip-path="url(#clip0_1907_2253)">
<path d="M29.9375 39.9942C29.5359 39.4015 29.035 38.8828 28.4457 38.6864C28.4462 38.6826 28.4473 38.679 28.4478 38.6751C28.57 37.7376 27.9091 36.8786 26.9715 36.7565L14.4959 35.1308C13.5584 35.0086 12.6994 35.6695 12.5772 36.6071C12.5767 36.6109 12.5768 36.6147 12.5763 36.6186C11.9564 36.6573 11.3394 37.0304 10.7992 37.5003C9.90765 38.276 10.3519 39.7418 11.5238 39.8945L28.6237 42.1227C29.7956 42.2754 30.6006 40.9724 29.9375 39.9942Z" fill="#E2A042"/>
<path d="M42.1358 12.3396C41.3721 11.141 40.1258 10.3481 38.7164 10.1645L36.8837 9.92568L37.1713 7.71803L12.0763 4.44799L11.7886 6.65564L9.91379 6.41134C8.50442 6.22769 7.0966 6.67459 6.05124 7.63758C5.00589 8.60049 4.44501 9.96696 4.51263 11.3867L4.9118 19.7744C5.02216 22.0936 6.77329 23.9946 9.07564 24.2946L14.9273 25.0571C15.0939 25.0788 15.2604 25.091 15.4264 25.0953C16.0649 26.0449 16.7562 26.9873 17.4869 27.937C18.018 28.6273 18.5005 29.2021 18.9566 29.6653C18.7246 30.344 18.4755 31.0168 18.2095 31.683L17.8801 32.4903C17.7649 32.7557 17.6611 33.0182 17.5433 33.2699C17.4217 33.5211 17.2693 33.7594 17.1054 33.9829C16.9403 34.2062 16.7703 34.4155 16.6284 34.6107C16.4985 34.7825 16.3785 34.9616 16.2689 35.147C16.2244 35.228 16.1786 35.3033 16.1457 35.3742C16.1137 35.4451 16.0892 35.5109 16.0755 35.5715C16.0151 35.8129 16.0912 35.9652 16.0912 35.9652C16.4718 36.7288 17.1565 37.4279 18.111 37.9417C20.4934 39.2239 23.6537 38.8686 25.1697 37.1482C25.1697 37.1482 25.2822 37.0204 25.2858 36.7716C25.2881 36.7096 25.2812 36.6397 25.2684 36.5629C25.2549 36.486 25.2298 36.4015 25.2075 36.3118C25.1492 36.1045 25.0791 35.9006 24.9975 35.7013C24.9104 35.4762 24.7997 35.2303 24.6974 34.9722C24.5961 34.7142 24.5098 34.4448 24.4567 34.1708C24.4073 33.8973 24.3744 33.617 24.3309 33.3309L24.2195 32.4661C24.1343 31.7641 24.0666 31.0601 24.0164 30.3547C24.5873 30.0208 25.2145 29.5806 25.9221 29.0361C26.8706 28.3064 27.7792 27.5735 28.6387 26.8202C28.7884 26.855 28.9397 26.8826 29.0921 26.9029L34.9438 27.6654C37.2461 27.9654 39.4259 26.5766 40.127 24.3631L42.6622 16.3578C43.0913 15.0029 42.8994 13.5382 42.1358 12.3396ZM9.49717 21.0597C9.14205 21.0137 8.81445 20.8441 8.57184 20.5808C8.32924 20.3174 8.18711 19.977 8.1704 19.6193L7.77114 11.2316C7.74171 10.6122 8.06565 10.2173 8.26144 10.037C8.45723 9.85665 8.87738 9.56611 9.49226 9.64623L11.369 9.89078C10.8223 14.465 11.6723 18.1601 13.3524 21.562L9.49717 21.0597ZM39.5522 15.3728L37.0171 23.3782C36.9092 23.7196 36.6846 24.0123 36.3826 24.2047C36.0806 24.3971 35.7205 24.477 35.3654 24.4305L31.5522 23.9336C34.048 21.0759 35.8166 17.722 36.4603 13.1604L38.295 13.3995C38.9098 13.4796 39.2415 13.8681 39.3845 14.0926C39.5275 14.3169 39.7394 14.7817 39.5522 15.3728Z" fill="#FFB636"/>
<path d="M10.7768 39.5481C11.6666 40.7045 15.5893 41.6205 19.924 42.1854C24.2586 42.7502 28.7929 42.5023 29.5793 41.8972C30.3657 41.2921 25.7947 40.6775 25.7947 40.6775L10.7768 39.5481Z" fill="#E2A042"/>
<path d="M24.3298 8.21734C31.2529 9.11945 36.9898 8.8939 37.1436 7.71357C37.2974 6.53325 31.8098 4.84509 24.8868 3.94298C17.9638 3.04087 12.2269 3.26642 12.0731 4.44675C11.9193 5.62708 17.4068 7.31523 24.3298 8.21734Z" fill="#FFD469"/>
<path d="M31.4484 19.0856C31.2992 19.0661 31.151 19.0196 31.0108 18.9437C30.397 18.6117 30.1685 17.8449 30.5006 17.2311C31.7436 14.933 31.8388 13.5219 31.9396 12.028C31.9865 11.3317 32.5891 10.8053 33.2853 10.8522C33.9829 10.8996 34.508 11.5018 34.461 12.198C34.329 14.1548 34.1173 15.8564 32.7233 18.4334C32.4672 18.907 31.9522 19.1512 31.4484 19.0856Z" fill="#FFD469"/>
</g>
<defs>
<clipPath id="clip0_1907_2253">
<rect width="39.2099" height="39.2099" fill="white" transform="translate(5.50781 0.920166) rotate(7.42414)"/>
</clipPath>
</defs>
</svg>
