<svg width="19" height="18" viewBox="0 0 19 18" fill="none" xmlns="http://www.w3.org/2000/svg">
<path d="M9.98438 1.5C8.99946 1.5 8.02419 1.69399 7.11425 2.0709C6.20431 2.44781 5.37751 3.00026 4.68107 3.6967C3.27455 5.10322 2.48438 7.01088 2.48438 9C2.48438 12.315 4.63688 15.1275 7.61438 16.125C7.98938 16.185 8.10938 15.9525 8.10938 15.75V14.4825C6.03188 14.9325 5.58938 13.4775 5.58938 13.4775C5.24437 12.6075 4.75688 12.375 4.75688 12.375C4.07438 11.91 4.80937 11.925 4.80937 11.925C5.55937 11.9775 5.95688 12.6975 5.95688 12.6975C6.60938 13.8375 7.71187 13.5 8.13937 13.32C8.20687 12.8325 8.40188 12.5025 8.61188 12.315C6.94688 12.1275 5.19937 11.4825 5.19937 8.625C5.19937 7.7925 5.48438 7.125 5.97188 6.5925C5.89688 6.405 5.63438 5.625 6.04688 4.6125C6.04688 4.6125 6.67688 4.41 8.10938 5.3775C8.70188 5.2125 9.34688 5.13 9.98438 5.13C10.6219 5.13 11.2669 5.2125 11.8594 5.3775C13.2919 4.41 13.9219 4.6125 13.9219 4.6125C14.3344 5.625 14.0719 6.405 13.9969 6.5925C14.4844 7.125 14.7694 7.7925 14.7694 8.625C14.7694 11.49 13.0144 12.12 11.3419 12.3075C11.6119 12.54 11.8594 12.9975 11.8594 13.695V15.75C11.8594 15.9525 11.9794 16.1925 12.3619 16.125C15.3394 15.12 17.4844 12.315 17.4844 9C17.4844 8.01509 17.2904 7.03982 16.9135 6.12987C16.5366 5.21993 15.9841 4.39314 15.2877 3.6967C14.5912 3.00026 13.7644 2.44781 12.8545 2.0709C11.9446 1.69399 10.9693 1.5 9.98438 1.5Z" fill="black"/>
</svg>
