<svg width="19" height="18" viewBox="0 0 19 18" fill="none" xmlns="http://www.w3.org/2000/svg">
<g clip-path="url(#clip0_1696_30928)">
<path d="M14.7656 0H5.20312C2.87317 0 0.984375 1.8888 0.984375 4.21875V13.7812C0.984375 16.1112 2.87317 18 5.20312 18H14.7656C17.0956 18 18.9844 16.1112 18.9844 13.7812V4.21875C18.9844 1.8888 17.0956 0 14.7656 0Z" fill="url(#paint0_radial_1696_30928)"/>
<path d="M14.7656 0H5.20312C2.87317 0 0.984375 1.8888 0.984375 4.21875V13.7812C0.984375 16.1112 2.87317 18 5.20312 18H14.7656C17.0956 18 18.9844 16.1112 18.9844 13.7812V4.21875C18.9844 1.8888 17.0956 0 14.7656 0Z" fill="url(#paint1_radial_1696_30928)"/>
<path d="M9.98501 1.96875C8.07546 1.96875 7.83577 1.97712 7.08581 2.01122C6.33727 2.04553 5.8263 2.16401 5.37926 2.33789C4.91674 2.51747 4.52447 2.75773 4.13367 3.14866C3.74252 3.53953 3.50227 3.9318 3.32213 4.39411C3.14775 4.8413 3.02913 5.35247 2.99545 6.10066C2.96191 6.85069 2.95312 7.09045 2.95312 9.00007C2.95312 10.9097 2.96156 11.1486 2.99559 11.8986C3.03005 12.6471 3.14852 13.1581 3.32227 13.6051C3.50198 14.0676 3.74224 14.4599 4.13318 14.8507C4.52391 15.2419 4.91618 15.4827 5.37834 15.6622C5.82574 15.8361 6.33677 15.9546 7.08518 15.9889C7.8352 16.023 8.07469 16.0314 9.98416 16.0314C11.8939 16.0314 12.1328 16.023 12.8828 15.9889C13.6313 15.9546 14.1429 15.8361 14.5903 15.6622C15.0526 15.4827 15.4443 15.2419 15.8349 14.8507C16.2261 14.4599 16.4663 14.0676 16.6465 13.6053C16.8193 13.1581 16.938 12.647 16.9732 11.8987C17.0068 11.1488 17.0156 10.9097 17.0156 9.00007C17.0156 7.09045 17.0068 6.85083 16.9732 6.1008C16.938 5.35226 16.8193 4.84137 16.6465 4.39432C16.4663 3.9318 16.2261 3.53953 15.8349 3.14866C15.4439 2.75759 15.0527 2.51733 14.5898 2.33796C14.1416 2.16401 13.6304 2.04546 12.8818 2.01122C12.1318 1.97712 11.893 1.96875 9.98283 1.96875H9.98501ZM9.35423 3.23585C9.54148 3.23557 9.75038 3.23585 9.98501 3.23585C11.8624 3.23585 12.0849 3.2426 12.8263 3.27628C13.5118 3.30764 13.8839 3.42218 14.1318 3.51844C14.4599 3.64584 14.6938 3.79821 14.9398 4.04437C15.1859 4.29047 15.3382 4.52482 15.4659 4.85297C15.5622 5.10047 15.6769 5.47256 15.7081 6.15811C15.7418 6.89934 15.7491 7.12195 15.7491 8.99845C15.7491 10.875 15.7418 11.0976 15.7081 11.8388C15.6767 12.5243 15.5622 12.8964 15.4659 13.144C15.3385 13.4722 15.1859 13.7058 14.9398 13.9518C14.6937 14.1979 14.46 14.3501 14.1318 14.4776C13.8842 14.5743 13.5118 14.6886 12.8263 14.7199C12.085 14.7536 11.8624 14.7609 9.98501 14.7609C8.10752 14.7609 7.88498 14.7536 7.14382 14.7199C6.45827 14.6883 6.08618 14.5737 5.83812 14.4775C5.51004 14.35 5.27562 14.1977 5.02952 13.9516C4.78343 13.7055 4.63113 13.4717 4.50338 13.1434C4.40712 12.8959 4.29244 12.5238 4.26122 11.8382C4.22754 11.097 4.22079 10.8744 4.22079 8.9967C4.22079 7.11907 4.22754 6.89759 4.26122 6.15635C4.29258 5.4708 4.40712 5.09871 4.50338 4.85086C4.63085 4.52271 4.78343 4.28836 5.02959 4.04227C5.27569 3.79617 5.51004 3.6438 5.83819 3.51612C6.08604 3.41944 6.45827 3.30518 7.14382 3.27368C7.79245 3.24436 8.04382 3.23557 9.35423 3.23409V3.23585ZM13.7383 4.40332C13.2725 4.40332 12.8945 4.7809 12.8945 5.24679C12.8945 5.71261 13.2725 6.09054 13.7383 6.09054C14.2041 6.09054 14.582 5.71261 14.582 5.24679C14.582 4.78097 14.2041 4.40304 13.7383 4.40304V4.40332ZM9.98501 5.38917C7.99095 5.38917 6.37418 7.00594 6.37418 9.00007C6.37418 10.9942 7.99095 12.6102 9.98501 12.6102C11.9791 12.6102 13.5953 10.9942 13.5953 9.00007C13.5953 7.00601 11.979 5.38917 9.98487 5.38917H9.98501ZM9.98501 6.65627C11.2794 6.65627 12.3288 7.70555 12.3288 9.00007C12.3288 10.2945 11.2794 11.3439 9.98501 11.3439C8.69056 11.3439 7.64128 10.2945 7.64128 9.00007C7.64128 7.70555 8.69056 6.65627 9.98501 6.65627Z" fill="white"/>
</g>
<defs>
<radialGradient id="paint0_radial_1696_30928" cx="0" cy="0" r="1" gradientUnits="userSpaceOnUse" gradientTransform="translate(5.76562 19.3864) rotate(-90) scale(17.8393 16.592)">
<stop stop-color="#FFDD55"/>
<stop offset="0.1" stop-color="#FFDD55"/>
<stop offset="0.5" stop-color="#FF543E"/>
<stop offset="1" stop-color="#C837AB"/>
</radialGradient>
<radialGradient id="paint1_radial_1696_30928" cx="0" cy="0" r="1" gradientUnits="userSpaceOnUse" gradientTransform="translate(-2.0307 1.29663) rotate(78.681) scale(7.97428 32.8702)">
<stop stop-color="#3771C8"/>
<stop offset="0.128" stop-color="#3771C8"/>
<stop offset="1" stop-color="#6600FF" stop-opacity="0"/>
</radialGradient>
<clipPath id="clip0_1696_30928">
<rect width="18" height="18" fill="white" transform="translate(0.984375)"/>
</clipPath>
</defs>
</svg>
