<svg width="20" height="20" viewBox="0 0 20 20" fill="none" xmlns="http://www.w3.org/2000/svg">
<g clip-path="url(#clip0_2047_2492)">
<path d="M14.9356 18.1531C14.6934 17.8798 14.4059 17.6504 14.0949 17.59C14.0949 17.588 14.0952 17.5861 14.0952 17.5841C14.0952 17.1019 13.7043 16.7109 13.222 16.7109H6.80474C6.32251 16.7109 5.93157 17.1018 5.93157 17.5841C5.93157 17.5861 5.93185 17.588 5.93189 17.59C5.62087 17.6504 5.33337 17.8798 5.09114 18.1531C4.6913 18.6042 5.01259 19.3163 5.6154 19.3163H14.4114C15.0142 19.3163 15.3355 18.6042 14.9356 18.1531Z" fill="#E2A042"/>
<path d="M19.2795 3.36195C18.8142 2.80602 18.1316 2.48715 17.4066 2.48715H16.4639V1.35156L3.55529 1.35156V2.48715H2.59092C1.86596 2.48715 1.18334 2.80598 0.718067 3.36195C0.252794 3.91789 0.059161 4.64602 0.186934 5.35965L0.941661 9.57586C1.15033 10.7416 2.16135 11.5877 3.34564 11.5877H6.35564C6.44135 11.5877 6.52639 11.5829 6.61064 11.5741C6.99615 12.0124 7.40795 12.4435 7.8401 12.8757C8.15424 13.1898 8.43619 13.4487 8.6974 13.653C8.62478 14.0116 8.54311 14.3683 8.45248 14.7228L8.33912 15.1528C8.29834 15.2946 8.26314 15.4343 8.22014 15.5693C8.17518 15.7044 8.11381 15.835 8.04561 15.9588C7.97682 16.0827 7.90463 16.1997 7.84572 16.3078C7.79136 16.4033 7.74246 16.5018 7.69928 16.6028C7.68209 16.6467 7.66389 16.6878 7.65193 16.7258C7.64041 16.7638 7.63232 16.7987 7.62939 16.8302C7.61478 16.9563 7.6633 17.0283 7.6633 17.0283C7.90611 17.3895 8.29854 17.6979 8.81518 17.8949C10.1047 18.3864 11.6797 17.9984 12.3331 17.0283C12.3331 17.0283 12.3817 16.9563 12.3671 16.8302C12.3641 16.7987 12.356 16.7638 12.3445 16.7258C12.3326 16.6878 12.3144 16.6467 12.2972 16.6028C12.254 16.5018 12.2051 16.4033 12.1507 16.3078C12.0918 16.1997 12.0196 16.0827 11.9508 15.9588C11.8826 15.835 11.8212 15.7044 11.7763 15.5693C11.7333 15.4343 11.6981 15.2946 11.6573 15.1528L11.544 14.7228C11.4546 14.3733 11.374 14.0217 11.3021 13.6682C11.5688 13.4617 11.8571 13.1977 12.1791 12.8757C12.6107 12.444 13.022 12.0135 13.4071 11.5758C13.4851 11.5835 13.5635 11.5875 13.6419 11.5877H16.6519C17.8362 11.5877 18.8472 10.7416 19.0559 9.57582L19.8106 5.35965C19.9383 4.64605 19.7447 3.91789 19.2795 3.36195ZM3.34564 9.92371C3.16299 9.92386 2.98612 9.85969 2.84605 9.74247C2.70598 9.62524 2.61166 9.46244 2.57963 9.28262L1.82486 5.06644C1.76916 4.75512 1.90697 4.53398 1.99412 4.42988C2.08127 4.32578 2.27463 4.15113 2.59092 4.15113H3.55627C3.58123 6.50082 4.25471 8.31375 5.32873 9.92371H3.34564ZM18.1726 5.06644L17.418 9.28262C17.3859 9.46244 17.2916 9.62525 17.1515 9.74248C17.0115 9.85971 16.8346 9.92388 16.6519 9.92375H14.6905C15.7645 8.31379 16.438 6.50086 16.4629 4.15117H17.4067C17.7229 4.15117 17.9163 4.32582 18.0035 4.42992C18.0906 4.53398 18.2283 4.75512 18.1726 5.06644Z" fill="#FFB636"/>
<path d="M5.21094 19.19C5.73723 19.7163 7.78172 19.9211 10.0114 19.9211C12.2411 19.9211 14.5182 19.4969 14.8761 19.139C15.2339 18.7811 12.8814 18.7715 12.8814 18.7715L5.21094 19.19Z" fill="#E2A042"/>
<path d="M10.0027 2.45063C13.5638 2.45063 16.4506 1.95844 16.4506 1.35129C16.4506 0.744143 13.5638 0.251953 10.0027 0.251953C6.44154 0.251953 3.55469 0.744143 3.55469 1.35129C3.55469 1.95844 6.44154 2.45063 10.0027 2.45063Z" fill="#FFD469"/>
<path d="M14.3164 7.47813C14.2397 7.47813 14.1617 7.46434 14.0857 7.4352C13.7534 7.30774 13.5873 6.93497 13.7148 6.60263C14.1921 5.35829 14.1472 4.63829 14.0997 3.87606C14.0776 3.52079 14.3477 3.21481 14.7029 3.19266C15.0589 3.17063 15.3641 3.44063 15.3863 3.79587C15.4485 4.7943 15.4536 5.66891 14.9183 7.06423C14.82 7.32067 14.5756 7.47813 14.3164 7.47813Z" fill="#FFD469"/>
</g>
<defs>
<clipPath id="clip0_2047_2492">
<rect width="20" height="20" fill="white"/>
</clipPath>
</defs>
</svg>
