<svg width="19" height="19" viewBox="0 0 19 19" fill="none" xmlns="http://www.w3.org/2000/svg">
<g clip-path="url(#clip0_1696_30921)">
<path d="M16.7969 0.92194H2.17188C1.84004 0.918563 1.52043 1.04696 1.28315 1.27896C1.04588 1.51096 0.91033 1.82762 0.90625 2.15944V16.8435C0.911068 17.1748 1.04694 17.4908 1.28413 17.7222C1.52133 17.9536 1.84052 18.0816 2.17188 18.0782H16.7969C17.1287 18.0808 17.4481 17.952 17.6853 17.7198C17.9224 17.4877 18.0581 17.1711 18.0625 16.8393V2.15522C18.0566 1.82437 17.9203 1.50923 17.6833 1.27829C17.4463 1.04736 17.1278 0.919293 16.7969 0.92194Z" fill="#0076B2"/>
<path d="M3.44469 7.35254H5.99141V15.5468H3.44469V7.35254ZM4.71875 3.27441C5.01085 3.27441 5.29638 3.36105 5.53923 3.52336C5.78208 3.68567 5.97133 3.91636 6.08305 4.18625C6.19477 4.45613 6.22393 4.75309 6.16684 5.03956C6.10975 5.32602 5.96898 5.58912 5.76234 5.79556C5.5557 6.00201 5.29247 6.14252 5.00595 6.19934C4.71943 6.25615 4.4225 6.22671 4.15272 6.11474C3.88294 6.00276 3.65243 5.81329 3.49035 5.57029C3.32827 5.32728 3.24191 5.04167 3.24219 4.74957C3.24256 4.35821 3.39829 3.983 3.67516 3.70639C3.95203 3.42979 4.32739 3.27441 4.71875 3.27441ZM7.58891 7.35254H10.0302V8.47754H10.0639C10.4042 7.83348 11.2339 7.15426 12.4728 7.15426C15.0519 7.14863 15.53 8.84598 15.53 11.0468V15.5468H12.9833V11.56C12.9833 10.6108 12.9664 9.38879 11.66 9.38879C10.3536 9.38879 10.1314 10.4238 10.1314 11.4982V15.5468H7.58891V7.35254Z" fill="white"/>
</g>
<defs>
<clipPath id="clip0_1696_30921">
<rect width="18" height="18" fill="white" transform="translate(0.484375 0.5)"/>
</clipPath>
</defs>
</svg>
