<svg width="66" height="91" viewBox="0 0 66 91" fill="none" xmlns="http://www.w3.org/2000/svg">
<path d="M-13.3112 -33.2465C-16.7246 -42.1277 -33.6119 -46.5134 -30.8251 -28.8302C-30.3682 -25.9307 -30.3222 -20.9381 -30.8251 -14.8611C-31.2858 -9.29419 -40.3043 -6.24813 -43.0726 0.944897C-47.4142 12.2257 -31.1813 20.0885 -33.7645 26.0186C-37.1479 33.7856 -47.5077 37.1555 -53.238 41.4048C-58.6325 45.4051 -62.0686 51.8237 -63.388 58.4227C-65.7026 69.9998 -61.5021 82.1323 -49.9312 82.7359C-44.1389 83.0381 -36.4996 80.4512 -26.9059 73.4593C-22.6166 70.3332 -18.8343 67.757 -15.4728 65.6738C-6.82095 60.3122 -9.14703 72.9946 1.14088 73.4593C7.00289 73.7241 13.1254 62.7753 17.7602 68.6155C21.0558 72.7681 24.8377 77.8068 30.2385 82.9869C39.7233 92.0842 51.5819 93.4236 53.2592 80.44C54.051 74.311 52.574 64.9903 47.5075 51.7872C44.2652 43.338 52.33 43.6359 53.2592 32.8086C54.1884 21.9813 46.59 16.9881 52.0905 12.5069L52.2007 12.4171C56.3932 9.00182 60.8648 5.35931 63.3068 -1.6369C65.4103 -7.66344 65.2093 -13.6323 63.3068 -18.2188C61.2706 -23.1274 57.2855 -26.4526 52.0905 -26.5705C46.878 -26.6889 40.4474 -23.5783 33.5453 -15.5984C28.9947 -10.3371 25.9129 -22.5793 17.7602 -21.3279C9.60751 -20.0764 8.47436 -8.26425 3.59038 -11.6903C-4.89347 -17.6415 -9.31342 -22.8451 -13.3112 -33.2465Z" stroke="#D4D4D4"/>
<path d="M3.15619 15.1976C2.63671 13.8341 0.215737 14.192 0.0932183 15.6696C-0.0462813 17.352 0.804114 19.5444 0.705813 21.2308C0.516014 24.4868 -0.634284 25.4137 -2.92469 27.1298C-3.74565 27.7439 -4.26857 28.7293 -4.46936 29.7424C-4.82161 31.5197 -4.18236 33.3822 -2.42143 33.4748C-1.53992 33.5212 -0.377329 33.1241 1.08268 32.0507C1.73546 31.5708 2.31107 31.1753 2.82264 30.8555C5.04962 29.3519 7.12227 30.5301 7.88022 31.3071C8.38176 31.9446 8.95731 32.7181 9.77924 33.5134C11.2227 34.91 13.4086 34.727 13.2827 33.1224C13.1048 30.8555 9.23458 22.394 13.2827 20.9186C15.163 20.2332 15.1013 18.6807 14.8118 17.9766C14.5019 17.2231 13.8954 16.7126 13.1048 16.6945C12.3115 16.6763 10.9974 17.9766 10.2825 18.3789C7.64335 19.8639 5.28849 20.6316 3.15619 15.1976Z" stroke="#D4D4D4"/>
<path d="M-28.0068 -24.9619C-30.4801 -41.0598 -15.0479 -37.0469 -11.9185 -28.9052C-8.08709 -18.9514 -3.8513 -14.2864 4.108 -9.00584C8.58433 -5.90695 9.66149 -16.6923 17.1265 -17.8645C24.5914 -19.0368 27.4434 -7.92755 31.62 -12.7135C37.9719 -19.9722 43.8781 -22.7562 48.6491 -22.5805C53.389 -22.4414 57.023 -19.3652 58.859 -14.8486C60.5734 -10.625 60.7149 -5.14394 58.7154 0.370045C56.1058 6.92426 52.3373 11.0039 48.51 14.3395C43.5109 18.489 50.3777 23.0722 49.4676 32.9295C48.5574 42.7869 41.1369 42.4885 44.0214 50.1128C48.5565 62.0534 49.848 70.4638 49.082 75.9825C47.5214 87.7602 36.6671 86.4974 27.9561 78.2022C22.9609 73.4708 19.4221 68.8939 16.3223 65.1836C12.0587 59.899 6.43556 69.8961 1.04249 69.6984C-8.38462 69.324 -6.32782 57.8185 -14.253 62.7172C-17.3646 64.633 -20.8525 66.9849 -24.7953 69.8269C-33.6845 76.1799 -40.6935 78.3654 -45.9318 77.9302C-56.4507 77.3353 -60.2562 66.2519 -58.1267 55.6782C-56.9027 49.6337 -53.7457 43.7579 -48.8001 40.0906C-43.3779 36.0697 -33.8471 32.9201 -30.7514 25.5597C-28.3965 20.0883 -43.1835 12.8471 -39.2499 2.49615C-36.7476 -4.13565 -28.5581 -6.99442 -28.1326 -12.1352C-27.6694 -17.7308 -27.6534 -22.3146 -28.0068 -24.9619Z" stroke="#D4D4D4"/>
<path d="M-25.0535 -20.9296C-27.2096 -35.3894 -13.2551 -31.7625 -10.4143 -24.387C-6.75476 -14.9146 -2.70926 -10.8032 4.71391 -6.21041C8.77604 -3.44876 9.79565 -13.1718 16.562 -14.261C23.3283 -15.3501 25.9463 -5.41018 29.7427 -9.70519C35.5353 -16.2187 40.9084 -18.6671 45.2308 -18.4349C49.5088 -18.2752 52.7863 -15.4581 54.4194 -11.3484C55.9431 -7.5017 56.025 -2.52649 54.1324 2.45679C51.3804 8.48592 48.3777 12.9854 44.9528 16.2038C40.4625 20.0079 46.5876 24.166 45.6978 33.0211C44.808 41.8761 38.0427 41.5783 40.565 48.3527C44.5621 58.9919 45.6663 66.4645 44.9271 71.355C43.4855 81.8882 33.6515 80.7064 25.7269 73.2404C21.1447 68.9733 17.8541 64.8732 14.9545 61.6172C11.0683 56.9054 5.95287 65.9179 1.03661 65.788C-7.51594 65.5051 -5.73143 55.2141 -12.9184 59.6337C-15.7755 61.3759 -18.9639 63.4956 -22.5545 66.0443C-30.7263 71.7376 -37.0947 73.515 -41.7712 72.9483C-51.2228 72.3642 -54.6277 62.3663 -52.6864 52.8308C-51.5596 47.3607 -48.6863 42.047 -44.1968 38.7249C-39.0905 34.9458 -30.4027 32.0269 -27.5992 25.098C-25.4761 20.1034 -38.7956 13.5076 -35.2756 4.12069C-33.0432 -1.92796 -25.6946 -4.58989 -25.3049 -9.28751C-24.8822 -14.3833 -24.8042 -18.5431 -25.0535 -20.9296Z" stroke="#D4D4D4"/>
<path d="M-22.2283 -17.0612C-24.0705 -29.9356 -11.5722 -26.6816 -9.01549 -20.0455C-5.52214 -11.021 -1.66058 -7.44812 5.23801 -3.52595C8.89223 -1.09141 9.85588 -9.78761 15.934 -10.7976C22.0122 -11.8075 24.4002 -3.0005 27.8224 -6.82021C33.0644 -12.6125 37.9129 -14.7343 41.7934 -14.4447C45.616 -14.2639 48.5421 -11.6958 49.9748 -7.97813C51.3102 -4.49439 51.3324 -0.0070076 49.5439 4.46369C46.6449 9.98942 44.4036 14.9234 41.376 18.036C37.3875 21.5082 42.7803 25.2564 41.9095 33.1415C41.0387 41.0266 34.918 40.7282 37.0821 46.6776C40.5473 56.0544 41.4658 62.6167 40.7523 66.897C39.4273 76.2242 30.5984 75.1191 23.4481 68.4552C19.2718 64.6369 16.2243 60.9984 13.5204 58.1848C10.0056 54.0285 5.38987 62.0893 0.94281 62.0266C-6.74837 61.834 -5.23345 52.7199 -11.6932 56.6765C-14.3003 58.2514 -17.1942 60.1466 -20.4381 62.4114C-27.9051 67.4657 -33.6428 68.8418 -37.7647 68.1421C-46.1636 67.5667 -49.173 58.6179 -47.4169 50.0859C-46.3856 45.1704 -43.7916 40.3994 -39.7512 37.4104C-34.953 33.8597 -27.0947 31.1612 -24.579 24.639C-22.6844 20.1031 -34.557 14.129 -31.4452 5.67197C-29.4792 0.184587 -22.9602 -2.29001 -22.6057 -6.56147C-22.2228 -11.1759 -22.0826 -14.9268 -22.2283 -17.0612Z" stroke="#D4D4D4"/>
<path d="M-19.2763 -13.191C-20.8014 -24.4795 -9.7814 -21.5984 -7.51347 -15.7019C-4.19242 -7.12451 -0.521587 -4.09049 5.84026 -0.839451C9.08006 1.26784 9.98607 -6.40123 15.3652 -7.332C20.7444 -8.26277 22.8983 -0.589153 25.9401 -3.93341C30.6224 -9.00415 34.9375 -10.7992 38.3692 -10.4522C41.7297 -10.2502 44.2991 -7.93111 45.5289 -4.60542C46.6736 -1.48465 46.6362 2.51483 44.9548 6.47283C41.914 11.4953 40.4381 16.8654 37.8131 19.8724C34.3336 23.0129 38.9845 26.351 38.1342 33.2658C37.2838 40.1806 31.8187 39.8817 33.6207 45.0058C36.5477 53.1196 37.2789 58.7711 36.5923 62.4408C35.3864 70.5616 27.5783 69.5332 21.2148 63.6715C17.4518 60.3022 14.6528 57.1256 12.1494 54.7545C9.01218 51.154 4.90442 58.2629 0.934456 58.2674C-5.8817 58.1652 -4.63909 50.2285 -10.3602 53.722C-12.7127 55.1295 -15.3069 56.8003 -18.1984 58.7809C-24.9474 63.1961 -30.0441 64.1705 -33.6042 63.3374C-40.9352 62.7707 -43.544 54.8712 -41.9762 47.3429C-41.0421 42.9821 -38.7321 38.754 -35.1479 36.0981C-30.6662 32.7757 -23.6514 30.2973 -21.428 24.1815C-19.7653 20.1043 -30.1697 14.7519 -27.4718 7.22493C-25.7756 2.29884 -20.0979 0.011467 -19.7792 -3.83383C-19.4367 -7.96678 -19.2347 -11.3088 -19.2763 -13.191Z" stroke="#D4D4D4"/>
<path d="M-16.3334 -9.14051C-17.5415 -18.8179 -8.00005 -16.3162 -6.02094 -11.1725C-2.87273 -3.06164 0.606766 -0.573167 6.43117 1.99958C9.25645 3.77494 10.1047 -2.84986 14.7847 -3.69936C19.4647 -4.54887 21.3843 1.97427 24.0456 -0.887071C28.1679 -5.22497 31.9496 -6.6893 34.9324 -6.28566C37.8306 -6.06296 40.0433 -3.99804 41.0702 -1.07184C42.0243 1.67896 41.9273 5.18159 40.3534 8.61804C37.1716 13.1259 36.4603 18.9196 34.2379 21.8142C31.2674 24.6159 35.1764 27.5365 34.3467 33.4656C33.5171 39.3947 28.7078 39.096 30.1478 43.3833C32.5369 50.2161 33.0808 54.9442 32.4213 57.9952C31.3346 64.8915 24.5475 63.942 18.9712 58.8958C15.6216 55.9828 13.0714 53.2753 10.7688 51.352C8.00939 48.3153 4.40972 54.4563 0.917053 54.5281C-5.02385 54.5165 -4.05339 47.7749 -9.03565 50.7974C-11.1334 52.0344 -13.4278 53.477 -15.9666 55.1691C-21.9972 58.9353 -26.4528 59.5059 -29.451 58.5413C-35.7143 57.9846 -37.9224 51.1521 -36.543 44.6444C-35.7062 40.848 -33.6801 37.1723 -30.5524 34.8554C-26.3878 31.7687 -20.2168 29.5161 -18.2858 23.8205C-16.855 20.2112 -25.7912 15.4925 -23.507 8.91242C-22.0807 4.55867 -17.2442 2.46369 -16.9614 -0.94682C-16.6593 -4.58907 -16.3956 -7.5147 -16.3334 -9.14051Z" stroke="#D4D4D4"/>
<path d="M-13.5109 -5.27127C-14.4045 -13.362 -6.32187 -11.2334 -4.62746 -6.82944C-1.6455 0.83505 1.64994 2.78427 6.94906 4.68527C9.36569 6.13316 10.1579 0.535954 14.1485 -0.234406C18.139 -1.00476 19.8283 4.38434 22.1147 1.99871C25.6857 -1.61729 28.9417 -2.75459 31.4818 -2.29334C33.9239 -2.04937 35.7845 -0.233461 36.6106 2.30061C37.3759 4.68835 37.2193 7.70293 35.7494 10.6265C32.42 14.631 32.4719 20.8626 30.6474 23.6521C28.1798 26.122 31.3551 28.6324 30.5444 33.5908C29.7336 38.5491 25.5701 38.2497 26.6511 41.7111C28.5072 47.2801 28.865 51.0969 28.2312 53.5369C27.2615 59.2261 21.4812 58.3532 16.6805 54.1096C13.7375 51.6458 11.4307 49.4004 9.32404 47.9201C6.93666 45.4395 3.83762 50.6281 0.814968 50.7673C-4.26304 50.8463 -3.56273 45.2827 -7.81653 47.8419C-9.66387 48.9115 -11.6632 50.1295 -13.8548 51.5373C-19.1795 54.6641 -23.0032 54.8323 -25.4458 53.734C-30.6543 53.1858 -32.4662 47.4031 -31.2724 41.8996C-30.5312 38.6581 -28.7849 35.5255 -26.1071 33.5419C-22.2508 30.6831 -16.9107 28.6508 -15.2682 23.361C-14.0663 20.2106 -21.5528 16.1137 -19.6777 10.464C-18.5183 6.67163 -14.513 4.7638 -14.2654 1.77952C-14.0032 -1.38117 -13.6771 -3.89776 -13.5109 -5.27127Z" stroke="#D4D4D4"/>
<path d="M-10.5638 -1.4023C-11.1406 -7.90511 -4.53803 -6.14975 -3.1328 -2.48601C-0.325153 4.73372 2.77734 6.14298 7.53697 7.37116C9.53856 8.49126 10.2726 3.92232 13.5632 3.23103C16.8538 2.53974 18.3083 6.79378 20.2137 4.88425C23.2238 1.99075 25.9455 1.18092 28.0363 1.7001C30.0157 1.96547 31.5193 3.53238 32.1425 5.6742C32.7172 7.69879 32.5012 10.2251 31.1394 12.6355C27.6716 16.1369 28.4861 22.8097 27.0644 25.4948C25.106 27.633 27.5393 29.733 26.7497 33.7198C25.9601 37.7066 22.4535 37.4065 23.1727 40.0411C24.491 44.345 24.6618 47.2493 24.0554 49.0777C23.2052 53.5587 18.447 52.7623 14.4346 49.3219C11.906 47.3074 9.84882 45.5246 7.94379 44.4879C5.93478 42.5639 3.34456 46.7995 0.799942 47.0063C-3.40174 47.1762 -2.97336 42.7917 -6.48743 44.8873C-8.07945 45.7895 -9.77839 46.7828 -11.6169 47.9061C-16.2215 50.3928 -19.4033 50.1578 -21.2838 48.9249C-25.4239 48.3851 -26.8349 43.6528 -25.8298 39.1542C-25.1862 36.4678 -23.7243 33.8786 -21.5035 32.2284C-17.9659 29.5972 -13.471 27.7849 -12.1211 22.9002C-11.1513 20.2088 -17.1685 16.7338 -15.7073 12.0149C-14.8178 8.78402 -11.6542 7.06313 -11.4425 4.50513C-11.2209 1.82612 -10.8335 -0.281267 -10.5638 -1.4023Z" stroke="#D4D4D4"/>
<path d="M-7.7076 2.46539C-7.97018 -2.44741 -2.81215 -1.0657 -1.68845 1.85723C0.961288 8.63454 3.88895 9.5027 8.13623 10.0564C9.73367 10.8481 10.4139 7.30858 13.0223 6.69628C15.6308 6.08397 16.8586 9.20125 18.3934 7.76845C20.8591 5.59843 23.0615 5.11678 24.7142 5.69438C26.2416 5.98137 27.3963 7.29924 27.8197 9.0486C28.2066 10.7099 27.9299 12.7476 26.6683 14.6443C23.0408 17.6426 24.6249 24.7619 23.5986 27.3436C22.1391 29.15 23.843 30.8394 23.0698 33.8534C22.2967 36.8674 19.4276 36.5664 19.7884 38.3727C20.5753 41.4094 20.5597 43.3997 19.9771 44.6152C19.2416 47.8861 15.4798 47.166 12.2337 44.5298C10.1054 42.9652 8.28617 41.6456 6.57187 41.0535C4.93019 39.6872 2.83463 42.9687 0.754066 43.2434C-2.59412 43.5046 -2.43585 40.301 -5.22929 41.9325L-5.30688 41.9749C-6.62895 42.6967 -8.01153 43.4515 -9.47828 44.2738C-13.3886 46.1196 -15.9457 45.4797 -17.274 44.1111C-20.3675 43.5795 -21.3851 39.8988 -20.563 36.4062C-20.0134 34.2755 -18.8279 32.2301 -17.052 30.9136C-13.8128 28.5094 -10.1383 26.9168 -9.07384 22.4361C-8.331 20.2037 -12.9108 17.351 -11.856 13.5636C-11.2318 10.8945 -8.89327 9.36025 -8.71631 7.22863C-8.53398 5.03155 -8.08266 3.33367 -7.7076 2.46539Z" stroke="#D4D4D4"/>
<path d="M-4.76755 6.52087C-4.71355 3.21966 -1.04026 4.22162 -0.206823 6.39079C2.26513 12.695 4.996 13.0184 8.6987 12.8953C9.87958 13.3553 10.5008 10.8608 12.4068 10.3302C14.3129 9.79965 15.3045 11.7665 16.4569 10.8168C18.3593 9.37975 20.0252 9.22832 21.2269 9.86166C22.2904 10.169 23.0871 11.2319 23.3074 12.581C23.5034 13.8716 23.1679 15.4117 22.016 16.7863C18.2555 19.2681 20.5986 26.8012 19.9757 29.2678C19.0267 30.7344 19.9875 32.0056 19.2365 34.0336C18.4856 36.0616 16.2762 35.7611 16.2754 36.7312C16.5245 38.4875 16.3222 39.5551 15.7678 40.1525C15.1526 42.1991 12.4165 41.5586 9.96188 39.7382C8.25017 38.6304 6.6827 37.7798 5.17212 37.6347C3.91046 36.8319 2.32578 39.1449 0.725342 39.4863C-1.74335 39.8375 -1.85673 37.8288 -3.90783 38.989C-4.9966 39.5528 -6.10275 40.0927 -7.24362 40.6426C-10.4296 41.8393 -12.3422 40.7977 -13.1076 39.2998C-15.1302 38.7787 -15.7463 36.1659 -15.1137 33.6946C-14.6623 32.1289 -13.7623 30.6366 -12.4452 29.6595C-9.52874 27.4931 -6.70306 26.1276 -5.93231 22.0709C-5.4222 20.3075 -8.52882 18.0898 -7.88872 15.2506C-7.5348 13.1552 -6.03976 11.8145 -5.89889 10.1188C-5.75729 8.41341 -5.24535 7.13258 -4.76755 6.52087Z" stroke="#D4D4D4"/>
<path d="M-1.7919 10.3949C-1.42278 8.69368 0.777506 9.31908 1.32313 10.7412C3.62123 16.5866 6.15965 16.3675 9.32501 15.5695C10.0928 15.6996 10.6561 14.2419 11.8655 13.7918C13.0749 13.3416 13.8328 14.1656 14.6059 13.6954C15.95 12.9863 17.0843 13.1637 17.8387 13.8539C18.4417 14.1821 18.8832 14.9931 18.9016 15.9459C18.9079 16.8695 18.5135 17.9166 17.4693 18.7735C13.5718 20.7455 16.6731 28.7064 16.451 31.0632C16.0087 32.194 16.2312 33.0509 15.5014 34.1C14.7717 35.1491 13.216 34.8484 12.8554 34.987C12.5694 35.4703 12.1812 35.6202 11.6541 35.6027C11.1579 36.4328 9.43909 35.8702 7.76911 34.8595C6.46991 34.2048 5.15104 33.8201 3.84129 34.1204C2.95624 33.8778 1.878 35.2298 0.753386 35.6385C-0.843137 36.0801 -1.22699 35.2586 -2.54188 35.9513C-3.37646 36.346 -4.18363 36.6593 -4.97305 36.9226C-7.44215 37.4747 -8.71585 36.0305 -8.92203 34.4005C-9.88141 33.8889 -10.0986 32.3354 -9.65387 30.8773C-9.29953 29.8718 -8.68267 28.9277 -7.82039 28.2872C-5.22151 26.3535 -3.23702 25.2114 -2.7576 21.5693C-2.47847 20.2699 -4.12285 18.6807 -3.89466 16.7812C-3.80929 15.2533 -3.15182 14.103 -3.0467 12.8384C-2.94545 11.6197 -2.37253 10.7521 -1.7919 10.3949Z" stroke="#D4D4D4"/>
</svg>
