<svg width="53" height="88" viewBox="0 0 53 88" fill="none" xmlns="http://www.w3.org/2000/svg">
<path d="M-88.3355 36.4108C-98.2976 0.311336 -61.3942 -3.36316 -34.7623 7.53701C-19.2237 13.1428 -9.01932 -4.29084 10.2299 2.66672C29.4791 9.62427 6.40331 31.5406 35.857 42.7886C65.3106 54.0367 50.9316 104.363 25.1886 104.943C-0.554306 105.523 6.51921 113.988 -19.2237 133.353C-44.9667 152.718 -88.3354 125.815 -77.5512 97.4054C-66.767 68.9954 -77.5514 75.4891 -88.3355 36.4108Z" stroke="#D4D4D4"/>
<path d="M-83.3013 38.7899C-92.4623 5.65961 -58.4244 1.8149 -33.8199 11.9394C-19.3336 17.2326 -9.68985 1.25092 8.05192 7.66382C26.1895 14.2202 4.9767 34.2665 32.0381 44.7667C59.1613 55.3265 46.2552 101.953 22.0543 102.48C-2.00492 103.007 4.62199 111.021 -19.2723 128.767C-43.1666 146.513 -83.1502 121.816 -73.3464 95.3556C-63.5426 69.2905 -73.3235 74.8362 -83.3013 38.7899Z" stroke="#D4D4D4"/>
<path d="M-78.2672 41.1681C-86.627 11.007 -55.4544 6.99209 -32.8775 16.3408C-19.4434 21.3215 -10.3604 6.79179 5.87394 12.66C22.8999 18.8152 3.55011 36.9915 28.2192 46.7439C53.0121 56.6153 41.5788 99.5419 18.9199 100.016C-3.45551 100.491 2.72478 108.054 -19.3208 124.181C-41.3665 140.308 -77.965 117.816 -69.1416 93.3049C-60.3182 69.5848 -69.0957 74.1824 -78.2672 41.1681Z" stroke="#D4D4D4"/>
<path d="M-73.2251 43.5474C-80.7838 16.3555 -52.4767 12.1704 -31.9273 20.7434C-19.5454 25.4115 -11.023 12.3338 3.70381 17.6574C19.6182 23.4113 2.13137 39.7177 24.4082 48.7222C46.8707 57.9053 36.9103 97.1321 15.7934 97.5538C-4.89827 97.9755 0.835419 105.088 -19.3615 119.596C-39.5585 134.104 -72.772 113.817 -64.9289 91.2554C-57.0859 69.8802 -64.86 73.5297 -73.2251 43.5474Z" stroke="#D4D4D4"/>
<path d="M-68.1909 45.9269C-74.9484 21.7042 -49.5067 17.3488 -30.9848 25.1461C-19.6551 29.5017 -11.6934 17.8759 1.5259 22.6549C16.3286 28.0076 0.704857 42.444 20.5894 50.7006C40.7215 59.1955 32.234 94.7225 12.6592 95.0914C-6.34879 95.4604 -1.06171 102.123 -19.41 115.011C-37.7583 127.9 -67.5867 109.818 -60.724 89.206C-53.8613 70.1758 -60.6321 72.8772 -68.1909 45.9269Z" stroke="#D4D4D4"/>
<path d="M-63.1488 48.4259C-69.1051 27.1724 -46.5288 22.6469 -30.0345 29.6684C-19.757 33.7114 -12.356 23.5376 -0.644119 27.7719C13.047 32.7234 -0.713783 45.2899 16.7785 52.7986C34.5803 60.6052 27.5656 92.4323 9.53277 92.7486C-7.79143 93.0648 -2.95097 99.2765 -19.4506 110.546C-35.9503 121.815 -62.3935 105.938 -56.5112 87.2762C-50.6289 70.5909 -56.3963 72.3443 -63.1488 48.4259Z" stroke="#D4D4D4"/>
<path d="M-58.1144 51.0684C-63.2696 32.7841 -43.5587 28.0884 -29.0919 34.3342C-19.8666 38.0647 -13.0263 29.3428 -2.82189 33.0325C9.7576 37.5827 -2.14016 48.2792 12.9599 55.0401C28.4312 62.1585 22.8894 90.2857 6.39863 90.5493C-9.24182 90.8128 -4.84796 96.5737 -19.4989 106.224C-34.1499 115.874 -57.2081 102.202 -52.3062 85.4898C-47.4043 71.1495 -52.1683 71.9548 -58.1144 51.0684Z" stroke="#D4D4D4"/>
<path d="M-53.0799 53.7179C-57.4339 38.4028 -40.5885 33.5369 -28.1492 39.007C-19.9761 42.4249 -13.6965 35.155 -4.99952 38.3C6.46834 42.4491 -3.56641 51.2756 9.14137 57.2887C22.2823 63.7187 18.2134 88.1461 3.26462 88.357C-10.6921 88.5678 -6.74483 93.878 -19.5471 101.909C-32.3495 109.94 -52.0225 98.4736 -48.101 83.7105C-44.1795 71.7151 -47.9401 71.5724 -53.0799 53.7179Z" stroke="#D4D4D4"/>
<path d="M-48.0452 56.3798C-51.5981 44.034 -37.618 38.9978 -27.2063 43.6922C-20.0854 46.7975 -14.3664 40.9797 -7.17696 43.58C3.17928 47.3278 -4.99246 54.2844 5.32306 59.5496C16.1336 65.2913 13.5376 86.0189 0.130814 86.177C-12.1421 86.3352 -8.64149 91.1947 -19.5952 97.6064C-30.5488 104.018 -46.8368 94.7571 -43.8956 81.9435C-40.9545 72.2932 -43.7117 71.2023 -48.0452 56.3798Z" stroke="#D4D4D4"/>
<path d="M-43.0101 59.0576C-45.7618 49.6809 -34.6472 44.4745 -26.263 48.3932C-20.1943 51.186 -15.036 46.8201 -9.35404 48.8758C-0.109425 52.2224 -6.41815 57.309 1.50511 61.8263C9.98529 66.8797 8.86209 83.9075 -3.00263 84.0129C-13.5918 84.1184 -10.5378 88.5272 -19.6428 93.3198C-28.7478 98.1123 -41.6507 91.0564 -39.6899 80.1924C-37.7291 72.887 -39.483 70.8481 -43.0101 59.0576Z" stroke="#D4D4D4"/>
<path d="M-37.9743 61.7619C-39.9249 55.3544 -31.6756 49.9778 -25.319 53.1207C-20.3025 55.601 -15.7049 52.687 -11.5304 54.1981C-3.39738 57.1434 -7.84309 60.3601 -2.3121 64.1296C3.8377 68.4947 4.18737 81.8227 -6.13533 81.8754C-15.0408 81.9281 -12.4334 85.8863 -19.6897 89.0596C-26.946 92.2329 -36.4638 87.3823 -35.4834 78.4678C-34.503 73.5074 -35.2535 70.5204 -37.9743 61.7619Z" stroke="#D4D4D4"/>
</svg>
