<svg width="170" height="152" viewBox="0 0 170 152" fill="none" xmlns="http://www.w3.org/2000/svg">
<path d="M39.2315 -54.1157C33.5592 -68.8739 5.4971 -76.1618 10.1279 -46.7769C10.8872 -41.9588 10.9636 -33.6624 10.1279 -23.564C9.3624 -14.3133 -5.62391 -9.25155 -10.2242 2.70137C-17.4388 21.4471 9.5361 34.513 5.24343 44.3673C-0.378902 57.2739 -17.5942 62.8739 -27.1165 69.9351C-36.0807 76.5825 -41.7906 87.2485 -43.983 98.2143C-47.8293 117.452 -40.8492 137.613 -21.6214 138.616C-11.9961 139.119 0.698502 134.82 16.6406 123.201C23.7683 118.006 30.0535 113.725 35.6394 110.264C50.0165 101.354 46.1512 122.429 63.247 123.201C72.9881 123.641 83.1621 105.447 90.8639 115.152C96.3403 122.053 102.625 130.426 111.6 139.034C127.361 154.151 147.067 156.377 149.854 134.801C151.17 124.617 148.715 109.128 140.296 87.1879C134.908 73.1476 148.31 73.6425 149.854 55.6504C151.398 37.6583 138.771 29.3609 147.912 21.9143L148.095 21.7652C155.062 16.0899 162.492 10.037 166.55 -1.5889C170.046 -11.6034 169.712 -21.5221 166.55 -29.1437C163.167 -37.3004 156.545 -42.826 147.912 -43.022C139.25 -43.2187 128.564 -38.0497 117.095 -24.7892C109.533 -16.0464 104.412 -36.3897 90.8639 -34.3101C77.3163 -32.2305 75.4333 -12.6018 67.3174 -18.2949C53.2195 -28.1843 45.8747 -36.8313 39.2315 -54.1157Z" stroke="#D4D4D4" stroke-width="1.19883"/>
<path d="M66.5921 26.3863C65.7288 24.1206 61.7058 24.7153 61.5022 27.1707C61.2704 29.9664 62.6835 33.6095 62.5202 36.4119C62.2048 41.8226 60.2933 43.3628 56.4872 46.2146C55.123 47.2351 54.2541 48.8725 53.9204 50.5559C53.3351 53.5093 54.3973 56.6043 57.3235 56.7583C58.7883 56.8354 60.7203 56.1755 63.1464 54.3918C64.2312 53.5943 65.1877 52.9371 66.0378 52.4057C69.7384 49.9071 73.1826 51.8649 74.4422 53.1561C75.2756 54.2155 76.232 55.5009 77.5978 56.8224C79.9964 59.1431 83.6288 58.839 83.4196 56.1726C83.124 52.4057 76.6927 38.3449 83.4196 35.8931C86.5443 34.7542 86.4417 32.1744 85.9605 31.0043C85.4456 29.7521 84.4378 28.9039 83.124 28.8738C81.8058 28.8436 79.6221 31.0043 78.4341 31.6728C74.0485 34.1406 70.1354 35.4162 66.5921 26.3863Z" stroke="#D4D4D4" stroke-width="1.19883"/>
<path d="M14.8165 -40.3482C10.7066 -67.0986 36.3508 -60.4303 41.5511 -46.9008C47.9179 -30.3603 54.9566 -22.6082 68.1829 -13.8334C75.6214 -8.68382 77.4113 -26.6062 89.8161 -28.5542C102.221 -30.5022 106.96 -12.0415 113.901 -19.9946C124.456 -32.0565 134.27 -36.6828 142.198 -36.3909C150.075 -36.1597 156.114 -31.0479 159.165 -23.5425C162.013 -16.524 162.249 -7.41589 158.926 1.74689C154.59 12.6383 148.327 19.4175 141.967 24.9604C133.66 31.8558 145.071 39.4719 143.559 55.8522C142.046 72.2325 129.715 71.7367 134.508 84.4062C142.045 104.248 144.191 118.224 142.918 127.395C140.324 146.966 122.288 144.868 107.812 131.083C99.5115 123.221 93.6309 115.616 88.4798 109.45C81.3948 100.668 72.0507 117.281 63.0888 116.952C47.4234 116.33 50.8413 97.2111 37.6717 105.351C32.5011 108.535 26.7051 112.443 20.1531 117.166C5.38166 127.723 -6.26543 131.355 -14.97 130.631C-32.4498 129.643 -38.7734 111.225 -35.2347 93.6544C-33.2009 83.6101 -27.9548 73.846 -19.7364 67.7521C-10.7262 61.0703 5.11148 55.8364 10.2558 43.6055C14.169 34.5135 -10.4032 22.4804 -3.86645 5.27992C0.291599 -5.74039 13.9004 -10.4909 14.6075 -19.0335C15.3771 -28.332 15.4037 -35.949 14.8165 -40.3482Z" stroke="#D4D4D4" stroke-width="1.19883"/>
<path d="M19.7199 -33.6484C16.137 -57.6767 39.3257 -51.6499 44.0465 -39.3936C50.1276 -23.653 56.8502 -16.821 69.1855 -9.18895C75.9357 -4.5998 77.6301 -20.757 88.8739 -22.5669C100.118 -24.3767 104.468 -7.85917 110.777 -14.9963C120.403 -25.8202 129.331 -29.8887 136.514 -29.5028C143.623 -29.2374 149.069 -24.5562 151.783 -17.7269C154.315 -11.3347 154.451 -3.06722 151.306 5.21367C146.733 15.2325 141.743 22.7094 136.052 28.0576C128.59 34.3789 138.769 41.2887 137.29 56.0034C135.811 70.7182 124.569 70.2233 128.761 81.4805C135.403 99.1601 137.238 111.578 136.009 119.704C133.614 137.208 117.272 135.244 104.104 122.837C96.4892 115.747 91.0211 108.933 86.2028 103.523C79.7449 95.6928 71.2444 110.669 63.0748 110.453C48.8627 109.983 51.8281 92.8824 39.8854 100.227C35.1375 103.122 29.8392 106.644 23.8726 110.879C10.2933 120.34 -0.289351 123.294 -8.0605 122.352C-23.7666 121.381 -29.4246 104.767 -26.1986 88.922C-24.3262 79.8322 -19.5516 71.0022 -12.0911 65.4817C-3.60594 59.2019 10.8309 54.3515 15.4897 42.8374C19.0178 34.5376 -3.11586 23.5773 2.73348 7.97863C6.4432 -2.07264 18.6546 -6.49605 19.3022 -14.3023C20.0046 -22.7701 20.1342 -29.6827 19.7199 -33.6484Z" stroke="#D4D4D4" stroke-width="1.19883"/>
<path d="M24.4149 -27.2193C21.3536 -48.6131 42.1225 -43.2059 46.371 -32.1784C52.1761 -17.182 58.593 -11.2449 70.0566 -4.7273C76.1289 -0.681725 77.7303 -15.1325 87.8306 -16.8108C97.9308 -18.489 101.899 -3.85413 107.586 -10.2015C116.297 -19.8267 124.354 -23.3526 130.802 -22.8714C137.154 -22.571 142.017 -18.3035 144.397 -12.1256C146.616 -6.33658 146.653 1.12026 143.681 8.54937C138.864 17.7317 135.139 25.9307 130.108 31.1029C123.481 36.8729 132.442 43.1013 130.995 56.2043C129.548 69.3073 119.377 68.8115 122.973 78.6979C128.731 94.2796 130.258 105.184 129.072 112.297C126.87 127.796 112.199 125.96 100.317 114.886C93.377 108.541 88.3129 102.495 83.8197 97.8197C77.979 90.913 70.3089 104.308 62.9191 104.204C50.1384 103.884 52.6558 88.7385 41.9214 95.3133C37.589 97.9303 32.7802 101.08 27.3896 104.843C14.9814 113.242 5.44695 115.529 -1.40266 114.366C-15.3593 113.41 -20.3602 98.5394 -17.442 84.3615C-15.7282 76.1932 -11.4177 68.2651 -4.70359 63.2981C3.26975 57.3979 16.3281 52.9136 20.5086 42.0754C23.6569 34.538 3.92782 24.6106 9.09872 10.5572C12.3658 1.43864 23.1986 -2.67348 23.7877 -9.77153C24.424 -17.4394 24.6569 -23.6725 24.4149 -27.2193Z" stroke="#D4D4D4" stroke-width="1.19883"/>
<path d="M29.316 -20.7896C26.7817 -39.5481 45.0941 -34.7605 48.8628 -24.962C54.3815 -10.7087 60.4815 -5.66692 71.0532 -0.264545C76.4369 3.23722 77.9424 -9.50676 86.8811 -11.0535C95.8199 -12.6001 99.3991 0.151382 104.454 -5.40589C112.235 -13.8321 119.405 -16.8151 125.108 -16.2384C130.692 -15.9027 134.962 -12.049 137.005 -6.52259C138.907 -1.3367 138.845 5.30939 136.051 11.8865C130.998 20.2325 128.546 29.1562 124.184 34.1531C118.402 39.3718 126.13 44.9188 124.717 56.4094C123.304 67.9 114.223 67.4033 117.217 75.9182C122.081 89.4012 123.296 98.7924 122.155 104.891C120.151 118.385 107.176 116.676 96.6017 106.936C90.3484 101.337 85.6973 96.0581 81.5372 92.118C76.3241 86.1349 69.498 97.948 62.901 97.9555C51.5743 97.7857 53.6393 84.597 44.1323 90.4022C40.223 92.7411 35.9122 95.5175 31.1073 98.8088C19.8921 106.146 11.4227 107.765 5.50689 106.38C-6.67541 105.439 -11.0105 92.3118 -8.40523 79.8019C-6.85305 72.5553 -3.0143 65.5294 2.94159 61.116C10.3891 55.5949 22.0458 51.4766 25.7405 41.3136C28.5035 34.5385 11.214 25.6442 15.6973 13.1363C18.5159 4.95046 27.9507 1.14946 28.4803 -5.24042C29.0495 -12.1083 29.3852 -17.6619 29.316 -20.7896Z" stroke="#D4D4D4" stroke-width="1.19883"/>
<path d="M34.2074 -14.0579C32.1999 -30.1393 48.0552 -25.9821 51.3439 -17.4345C56.5754 -3.95645 62.3574 0.178728 72.036 4.45396C76.7309 7.40413 78.1404 -3.60454 85.9174 -5.01619C93.6943 -6.42784 96.8841 4.41189 101.307 -0.342897C108.157 -7.55135 114.441 -9.98468 119.398 -9.31393C124.214 -8.94386 127.891 -5.51251 129.597 -0.649935C131.182 3.92116 131.021 9.74161 128.406 15.4521C123.119 22.9429 121.936 32.5705 118.243 37.3807C113.307 42.0364 119.803 46.8896 118.424 56.7422C117.046 66.5948 109.054 66.0984 111.447 73.2228C115.417 84.577 116.321 92.4339 115.225 97.504C113.419 108.964 102.141 107.386 92.8743 99.0004C87.3082 94.1599 83.0704 89.6607 79.244 86.4647C74.6586 81.4185 68.6769 91.6232 62.873 91.7425C53.0008 91.7233 54.6135 80.5204 46.3343 85.5431C42.8484 87.5987 39.0358 89.9959 34.8168 92.8077C24.7955 99.0662 17.3915 100.014 12.4093 98.4114C2.00137 97.4863 -1.66785 86.1324 0.624352 75.3184C2.01479 69.0098 5.38162 62.9017 10.579 59.0517C17.4996 53.9224 27.7542 50.1792 30.963 40.7145C33.3406 34.7169 18.491 26.8756 22.2866 15.9413C24.6568 8.70649 32.6938 5.22518 33.1638 -0.442186C33.6657 -6.49464 34.104 -11.3563 34.2074 -14.0579Z" stroke="#D4D4D4" stroke-width="1.19883"/>
<path d="M38.8977 -7.62816C37.4128 -21.0728 50.844 -17.5356 53.6597 -10.2174C58.6149 2.51894 64.0911 5.75803 72.8968 8.91699C76.9126 11.323 78.2291 2.02192 84.8603 0.741787C91.4916 -0.538347 94.2988 8.41692 98.0981 4.45263C104.032 -1.5562 109.443 -3.4461 113.664 -2.67962C117.722 -2.27422 120.814 0.743355 122.186 4.95432C123.458 8.9221 123.198 13.9315 120.755 18.7897C115.223 25.4442 115.309 35.7995 112.277 40.4349C108.177 44.5393 113.453 48.7109 112.106 56.9503C110.759 65.1898 103.84 64.6923 105.636 70.4443C108.721 79.6984 109.315 86.0409 108.262 90.0956C106.651 99.5496 97.0454 98.099 89.0679 91.0472C84.1774 86.953 80.3441 83.2217 76.8434 80.7619C72.8762 76.6397 67.7264 85.2618 62.7036 85.4931C54.2652 85.6245 55.429 76.3792 48.3603 80.632C45.2905 82.4094 41.9682 84.4333 38.3263 86.7728C29.478 91.9686 23.124 92.2482 19.0651 90.423C10.4099 89.5121 7.39896 79.9028 9.38288 70.7575C10.6145 65.3709 13.5164 60.1653 17.9661 56.869C24.3743 52.1186 33.2481 48.7413 35.9776 39.9512C37.9748 34.716 25.5342 27.908 28.6501 18.5197C30.5768 12.2178 37.2325 9.04748 37.644 4.0884C38.0797 -1.16384 38.6215 -5.34575 38.8977 -7.62816Z" stroke="#D4D4D4" stroke-width="1.19883"/>
<path d="M43.7909 -1.19981C42.8324 -12.0058 53.8041 -9.08881 56.1392 -3.00063C60.8048 8.99666 65.9603 11.3385 73.8695 13.3794C77.1957 15.2407 78.4155 7.64831 83.8836 6.49958C89.3517 5.35084 91.7687 12.4199 94.935 9.24679C99.9369 4.43856 104.46 3.09283 107.934 3.95557C111.223 4.39654 113.722 7.00034 114.757 10.5595C115.712 13.9238 115.354 18.1219 113.091 22.1273C107.328 27.9457 108.681 39.0342 106.319 43.496C103.065 47.0492 107.108 50.5389 105.796 57.1639C104.484 63.789 98.6568 63.2902 99.852 67.6682C102.043 74.8202 102.327 79.6464 101.319 82.6847C99.906 90.1309 91.9992 88.8075 85.3317 83.0904C81.1297 79.7429 77.7112 76.7803 74.5456 75.0576C71.2071 71.8605 66.9029 78.8989 62.6744 79.2426C55.6923 79.5249 56.4041 72.239 50.5647 75.7214C47.9192 77.2206 45.096 78.8711 42.0409 80.7378C34.3892 84.87 29.1019 84.4795 25.977 82.4307C19.0973 81.5337 16.7525 73.67 18.4228 66.1945C19.4923 61.7304 21.9216 57.4278 25.6119 54.6856C31.4905 50.3133 38.9599 47.3016 41.203 39.1846C42.8145 34.7121 32.8156 28.9376 35.2436 21.096C36.7218 15.7272 41.9788 12.8675 42.3306 8.61679C42.6989 4.16498 43.3427 0.663063 43.7909 -1.19981Z" stroke="#D4D4D4" stroke-width="1.19883"/>
<path d="M48.5424 5.22805C48.1061 -2.93573 56.6774 -0.639686 58.5446 4.21746C62.9478 15.4796 67.8128 16.9222 74.8707 17.8422C77.5252 19.1579 78.6555 13.2762 82.9901 12.2587C87.3247 11.2412 89.3649 16.4213 91.9154 14.0403C96.0128 10.4343 99.6726 9.63397 102.419 10.5938C104.957 11.0707 106.876 13.2606 107.579 16.1676C108.222 18.9282 107.763 22.3144 105.666 25.4661C99.6382 30.4486 102.271 42.279 100.565 46.569C98.1398 49.5709 100.971 52.3782 99.6864 57.3867C98.4016 62.3952 93.6339 61.895 94.2335 64.8966C95.5412 69.9427 95.5152 73.2501 94.5471 75.2699C93.3248 80.7053 87.0737 79.5087 81.6797 75.128C78.1429 72.5281 75.1198 70.3353 72.2711 69.3513C69.5431 67.0808 66.0608 72.5338 62.6035 72.9904C57.0397 73.4244 57.3027 68.1008 52.6607 70.812L52.5322 70.8822C50.3351 72.0817 48.0375 73.3361 45.6 74.7027C39.1021 77.7699 34.8529 76.7065 32.6456 74.4323C27.505 73.5489 25.8141 67.4326 27.1801 61.6287C28.0934 58.088 30.0634 54.6892 33.0144 52.5015C38.3972 48.5063 44.5032 45.8599 46.2721 38.4141C47.5065 34.7044 39.896 29.964 41.6488 23.6703C42.6861 19.2349 46.5721 16.6855 46.8662 13.1433C47.1692 9.49233 47.9192 6.67091 48.5424 5.22805Z" stroke="#D4D4D4" stroke-width="1.19883"/>
<path d="M53.4238 11.968C53.5135 6.48223 59.6175 8.14722 61.0025 11.7518C65.1102 22.2278 69.6482 22.7651 75.8011 22.5607C77.7635 23.325 78.7957 19.1798 81.9631 18.2981C85.1304 17.4164 86.7783 20.6849 88.6932 19.1066C91.8544 16.7187 94.6228 16.467 96.6198 17.5195C98.3869 18.0301 99.7109 19.7965 100.077 22.0384C100.403 24.1829 99.8452 26.7421 97.931 29.0264C91.6821 33.1505 95.5756 45.6685 94.5406 49.7673C92.9636 52.2045 94.5601 54.3169 93.3123 57.6869C92.0644 61.0569 88.393 60.5575 88.3916 62.1696C88.8055 65.0881 88.4694 66.8622 87.5481 67.8549C86.5258 71.2558 81.9791 70.1914 77.9002 67.1664C75.0558 65.3255 72.4511 63.9121 69.9409 63.671C67.8443 62.3369 65.211 66.1805 62.5515 66.7479C58.4492 67.3315 58.2608 63.9935 54.8524 65.9215C53.0432 66.8584 51.205 67.7555 49.3092 68.6693C44.015 70.6579 40.8366 68.9271 39.5647 66.4379C36.2037 65.572 35.1801 61.2302 36.2311 57.1235C36.9813 54.5218 38.4768 52.0419 40.6655 50.4184C45.5119 46.8184 50.2075 44.5491 51.4883 37.8081C52.3359 34.8777 47.1735 31.1924 48.2372 26.4745C48.8253 22.9924 51.3097 20.7646 51.5438 17.9468C51.7791 15.1129 52.6298 12.9845 53.4238 11.968Z" stroke="#D4D4D4" stroke-width="1.19883"/>
<path d="M58.3773 18.4048C58.9907 15.5778 62.647 16.617 63.5537 18.9802C67.3725 28.6937 71.5907 28.3296 76.8507 27.0036C78.1266 27.2198 79.0625 24.7975 81.0722 24.0494C83.082 23.3013 84.3414 24.6706 85.6261 23.8894C87.8597 22.7109 89.7445 23.0058 90.9982 24.1528C92.0003 24.6981 92.7339 26.0457 92.7645 27.6291C92.7749 29.1638 92.1196 30.9038 90.3843 32.3277C83.9077 35.6047 89.0612 48.8336 88.6922 52.75C87.9573 54.6292 88.3269 56.0531 87.1143 57.7964C85.9016 59.5397 83.3165 59.0401 82.7172 59.2703C82.242 60.0734 81.5969 60.3226 80.7211 60.2934C79.8965 61.6728 77.0402 60.738 74.2652 59.0584C72.1062 57.9706 69.9146 57.3312 67.7382 57.8303C66.2675 57.4272 64.4757 59.6739 62.6069 60.3529C59.9539 61.0868 59.316 59.7216 57.131 60.8728C55.7442 61.5286 54.4029 62.0492 53.0911 62.4867C48.9881 63.4042 46.8715 61.0043 46.5289 58.2957C44.9347 57.4455 44.5738 54.864 45.3128 52.4411C45.9016 50.7703 46.9267 49.2014 48.3595 48.137C52.6782 44.9236 55.9759 43.0258 56.7726 36.9737C57.2364 34.8144 54.5039 32.1735 54.8831 29.0171C55.0249 26.4782 56.1175 24.5666 56.2922 22.4651C56.4604 20.4401 57.4124 18.9982 58.3773 18.4048Z" stroke="#D4D4D4" stroke-width="1.19883"/>
</svg>
