<svg width="32" height="34" viewBox="0 0 32 34" fill="none" xmlns="http://www.w3.org/2000/svg">
<path d="M26.4352 33.36L10.9152 11.24C10.5152 10.68 10.1152 10.1467 9.71516 9.64C9.34182 9.10667 8.96849 8.6 8.59516 8.12V28.56C8.59516 29.2 8.74182 29.7067 9.03516 30.08C9.32849 30.4533 9.67516 30.7333 10.0752 30.92C10.5018 31.08 10.9418 31.1867 11.3952 31.24C11.8485 31.2933 12.2352 31.32 12.5552 31.32V33C12.2885 33 11.9285 32.9867 11.4752 32.96C11.0218 32.9067 10.5418 32.8533 10.0352 32.8C9.52849 32.7467 9.04849 32.7067 8.59516 32.68C8.14182 32.6267 7.78182 32.6 7.51516 32.6C7.24849 32.6 6.88849 32.6267 6.43516 32.68C5.98182 32.7067 5.50182 32.7467 4.99516 32.8C4.48849 32.8533 4.00849 32.9067 3.55516 32.96C3.10182 32.9867 2.74182 33 2.47516 33V31.32C2.82182 31.32 3.22182 31.2933 3.67516 31.24C4.15516 31.1867 4.59516 31.08 4.99516 30.92C5.39516 30.7333 5.72849 30.4533 5.99516 30.08C6.28849 29.7067 6.43516 29.2 6.43516 28.56V5.64C5.50182 4.70667 4.54182 3.97333 3.55516 3.44C2.56849 2.88 1.52849 2.6 0.435156 2.6C0.435156 1.98666 0.675156 1.44 1.15516 0.959998C1.63516 0.453331 2.38182 0.199998 3.39516 0.199998C4.30182 0.199998 5.07516 0.426665 5.71516 0.879999C6.38182 1.30666 6.71516 1.92 6.71516 2.72C7.19516 2.72 7.66182 2.77333 8.11516 2.88C8.56849 2.96 9.08849 3.22666 9.67516 3.68C10.2618 4.10667 10.9418 4.78667 11.7152 5.72C12.5152 6.65333 13.4885 7.94667 14.6352 9.6L25.6752 25.6V4.44C25.6752 3.61333 25.3552 2.98666 24.7152 2.56C24.1018 2.10666 23.2352 1.88 22.1152 1.88C22.1152 1.42667 22.2752 1.04 22.5952 0.719998C22.9152 0.373331 23.4618 0.199998 24.2352 0.199998C25.2485 0.199998 26.0885 0.613331 26.7552 1.44C27.4218 0.613331 28.2618 0.199998 29.2752 0.199998C30.0485 0.199998 30.5952 0.373331 30.9152 0.719998C31.2352 1.04 31.3952 1.42667 31.3952 1.88C30.3018 1.88 29.4352 2.10666 28.7952 2.56C28.1552 2.98666 27.8352 3.61333 27.8352 4.44V33L26.4352 33.36Z" fill="white"/>
</svg>
