<svg width="374" height="187" viewBox="0 0 374 187" fill="none" xmlns="http://www.w3.org/2000/svg">
<path d="M372.997 186H187H1.00268C1.26561 137.031 20.8322 90.1237 55.4781 55.4773C90.36 20.5968 137.67 1 187 1C236.33 1 283.641 20.5968 318.521 55.4789C353.167 90.1237 372.734 137.031 372.997 186Z" stroke="#99B080" stroke-width="2"/>
<path d="M325.006 185.999H187.001H48.9958C49.2581 149.758 63.7682 115.058 89.414 89.4115C115.296 63.5307 150.399 48.9902 187.001 48.9902C223.603 48.9902 258.707 63.5307 284.587 89.4127L285.295 88.7056L284.587 89.4127C310.234 115.058 324.744 149.758 325.006 185.999Z" stroke="#99B080" stroke-width="2"/>
<path d="M270.384 186C270.124 164.243 261.368 143.433 245.963 128.029L246.67 127.322L245.963 128.029C230.323 112.388 209.11 103.602 186.992 103.602C164.874 103.602 143.661 112.388 128.021 128.028C128.021 128.028 128.021 128.028 128.021 128.028M270.384 186L128.021 128.028M270.384 186H186.992H103.6C103.86 164.243 112.616 143.433 128.021 128.028M270.384 186L128.021 128.028" stroke="#99B080" stroke-width="2"/>
</svg>
