<svg width="92" height="233" viewBox="0 0 92 233" fill="none" xmlns="http://www.w3.org/2000/svg">
<path d="M3.77006 59.9303C-12.8088 -0.146067 48.6054 -6.26112 92.926 11.8788C118.785 21.208 135.767 -7.80495 167.802 3.77373C199.836 15.3524 161.433 51.8253 210.45 70.5442C259.466 89.2631 235.537 173.015 192.696 173.98C149.855 174.945 161.626 189.033 118.785 221.26C75.9439 253.487 3.77015 208.716 21.7171 161.437C39.664 114.157 21.7169 124.964 3.77006 59.9303Z" stroke="#D4D4D4"/>
<path d="M12.1502 63.8892C-3.09532 8.75413 53.5502 2.35582 94.4967 19.2048C118.605 28.0138 134.654 1.41724 164.179 12.0895C194.364 23.0005 159.062 56.3614 204.097 73.8357C249.235 91.4091 227.757 169.004 187.482 169.882C147.443 170.759 158.471 184.096 118.707 213.629C78.942 243.162 12.4017 202.06 28.7171 158.025C45.0325 114.648 28.7552 123.877 12.1502 63.8892Z" stroke="#D4D4D4"/>
<path d="M20.5305 67.8473C6.61817 17.6535 58.4951 10.9719 96.0674 26.53C118.424 34.8188 133.54 10.6386 160.557 20.4045C188.892 30.6478 156.69 60.8967 197.744 77.1264C239.004 93.5544 219.977 164.992 182.268 165.782C145.031 166.571 155.316 179.159 118.628 205.997C81.9402 232.835 21.0333 195.404 35.7171 154.613C50.401 115.138 35.7935 122.789 20.5305 67.8473Z" stroke="#D4D4D4"/>
<path d="M28.9107 71.8065C16.3317 26.5541 63.4401 19.5893 97.6381 33.8563C118.244 41.625 132.427 19.8612 156.935 28.7207C183.42 38.2962 154.318 65.4332 191.391 80.4183C228.773 95.7009 212.197 160.982 177.054 161.683C142.62 162.385 152.161 174.222 118.55 198.366C84.9384 222.509 29.6649 188.748 42.7172 151.202C55.7696 115.629 42.8319 121.703 28.9107 71.8065Z" stroke="#D4D4D4"/>
<path d="M37.2911 75.7661C26.0453 35.455 68.3851 28.2069 99.209 41.183C118.064 48.4315 131.313 29.0841 153.313 37.0371C177.948 45.945 151.947 69.97 185.038 83.7105C218.542 97.8476 204.417 156.971 171.841 157.585C140.208 158.199 149.007 169.287 118.472 190.735C87.9366 212.184 38.2966 182.093 49.7174 147.791C61.1382 116.121 49.8703 120.617 37.2911 75.7661Z" stroke="#D4D4D4"/>
<path d="M45.6793 79.9253C35.7668 44.5554 73.338 37.0241 100.788 48.7093C117.891 55.4376 130.208 38.5065 149.699 45.5532C172.483 53.7934 149.583 74.7064 178.693 87.2023C208.319 100.194 196.645 153.16 166.635 153.687C137.804 154.213 145.86 164.55 118.401 183.304C90.9428 202.059 46.9362 175.637 56.7255 144.579C66.5147 116.812 56.9167 119.73 45.6793 79.9253Z" stroke="#D4D4D4"/>
<path d="M54.0599 84.3226C45.4807 53.8941 78.2833 46.0794 102.359 56.4737C117.711 62.6819 129.095 48.1671 146.077 54.3074C167.012 61.8799 147.212 79.6809 172.341 90.9323C198.088 102.779 188.866 149.588 161.422 150.026C135.393 150.465 142.705 160.052 118.323 176.112C93.9413 192.171 55.5681 169.419 63.7258 141.606C71.8836 117.741 63.9553 119.082 54.0599 84.3226Z" stroke="#D4D4D4"/>
<path d="M62.4407 88.7332C55.1947 63.246 83.2287 55.1481 103.93 64.2514C117.532 69.9395 127.982 57.841 142.455 63.0749C161.54 69.9797 144.84 84.6687 165.989 94.6755C187.858 105.376 181.086 146.028 156.209 146.379C132.982 146.73 139.551 155.567 118.245 168.932C96.94 182.297 64.2003 163.215 70.7264 138.646C77.2526 118.684 70.9942 118.446 62.4407 88.7332Z" stroke="#D4D4D4"/>
<path d="M70.8218 93.1618C64.9091 72.6159 88.1745 64.2348 105.502 72.0471C117.352 77.215 126.87 67.533 138.834 71.8604C156.069 78.0975 142.47 89.6746 159.637 98.4368C177.627 107.992 173.307 142.487 150.996 142.75C130.571 143.013 136.397 151.1 118.168 161.771C99.939 172.441 72.8328 157.029 77.7274 135.705C82.622 119.645 78.0334 117.829 70.8218 93.1618Z" stroke="#D4D4D4"/>
<path d="M79.2035 97.6194C74.6241 82.0148 93.1209 73.3504 107.074 79.8718C117.173 84.5195 125.758 77.2538 135.214 80.6749C150.598 86.2443 140.099 94.7094 153.285 102.227C167.398 110.637 165.529 138.974 145.783 139.15C128.161 139.325 133.244 146.662 118.091 154.638C102.939 162.614 81.4658 150.871 84.7289 132.792C87.992 120.634 85.0732 117.241 79.2035 97.6194Z" stroke="#D4D4D4"/>
<path d="M87.5864 102.119C84.3403 91.4562 98.0686 82.5085 108.647 87.7389C116.996 91.8666 124.647 87.0172 131.594 89.5319C145.129 94.4335 137.73 99.7867 146.935 106.06C157.169 113.324 157.751 135.504 140.572 135.592C125.752 135.68 130.091 142.267 118.015 147.548C105.94 152.829 90.1002 144.757 91.7317 129.921C93.3632 121.666 92.1143 116.695 87.5864 102.119Z" stroke="#D4D4D4"/>
</svg>
