<svg width="216" height="169" viewBox="0 0 216 169" fill="none" xmlns="http://www.w3.org/2000/svg">
<path d="M85.2315 -37.1157C79.5592 -51.8739 51.4971 -59.1618 56.1279 -29.7769C56.8872 -24.9588 56.9636 -16.6624 56.1279 -6.56401C55.3624 2.68671 40.3761 7.74845 35.7758 19.7014C28.5612 38.4471 55.5361 51.513 51.2434 61.3673C45.6211 74.2739 28.4058 79.8739 18.8835 86.9351C9.91934 93.5825 4.20942 104.248 2.01702 115.214C-1.82926 134.452 5.1508 154.613 24.3786 155.616C34.0039 156.119 46.6985 151.82 62.6406 140.201C69.7683 135.006 76.0535 130.725 81.6394 127.264C96.0165 118.354 92.1512 139.429 109.247 140.201C118.988 140.641 129.162 122.447 136.864 132.152C142.34 139.053 148.625 147.426 157.6 156.034C173.361 171.151 193.067 173.377 195.854 151.801C197.17 141.617 194.715 126.128 186.296 104.188C180.908 90.1476 194.31 90.6425 195.854 72.6504C197.398 54.6583 184.771 46.3609 193.912 38.9143L194.095 38.7652C201.062 33.0899 208.492 27.037 212.55 15.4111C216.046 5.39657 215.712 -4.52215 212.55 -12.1437C209.167 -20.3004 202.545 -25.826 193.912 -26.022C185.25 -26.2187 174.564 -21.0497 163.095 -7.78925C155.533 0.953617 150.412 -19.3897 136.864 -17.3101C123.316 -15.2305 121.433 4.39819 113.317 -1.29492C99.2195 -11.1843 91.8747 -19.8313 85.2315 -37.1157Z" stroke="#D4D4D4" stroke-width="1.19883"/>
<path d="M112.592 43.3863C111.729 41.1206 107.706 41.7153 107.502 44.1707C107.27 46.9664 108.684 50.6095 108.52 53.4119C108.205 58.8226 106.293 60.3628 102.487 63.2146C101.123 64.2351 100.254 65.8725 99.9204 67.5559C99.3351 70.5093 100.397 73.6043 103.324 73.7583C104.788 73.8354 106.72 73.1755 109.146 71.3918C110.231 70.5943 111.188 69.9371 112.038 69.4057C115.738 66.9071 119.183 68.8649 120.442 70.1561C121.276 71.2155 122.232 72.5009 123.598 73.8224C125.996 76.1431 129.629 75.839 129.42 73.1726C129.124 69.4057 122.693 55.3449 129.42 52.8931C132.544 51.7542 132.442 49.1744 131.961 48.0043C131.446 46.7521 130.438 45.9039 129.124 45.8738C127.806 45.8436 125.622 48.0043 124.434 48.6728C120.049 51.1406 116.135 52.4162 112.592 43.3863Z" stroke="#D4D4D4" stroke-width="1.19883"/>
<path d="M60.8165 -23.3482C56.7066 -50.0986 82.3508 -43.4303 87.5511 -29.9008C93.9179 -13.3603 100.957 -5.60823 114.183 3.16664C121.621 8.31618 123.411 -9.60622 135.816 -11.5542C148.221 -13.5022 152.96 4.95847 159.901 -2.99458C170.456 -15.0565 180.27 -19.6828 188.198 -19.3909C196.075 -19.1597 202.114 -14.0479 205.165 -6.54247C208.013 0.475986 208.249 9.58411 204.926 18.7469C200.59 29.6383 194.327 36.4175 187.967 41.9604C179.66 48.8558 191.071 56.4719 189.559 72.8522C188.046 89.2325 175.715 88.7367 180.508 101.406C188.045 121.248 190.191 135.224 188.918 144.395C186.324 163.966 168.288 161.868 153.812 148.083C145.511 140.221 139.631 132.616 134.48 126.45C127.395 117.668 118.051 134.281 109.089 133.952C93.4234 133.33 96.8413 114.211 83.6717 122.351C78.5011 125.535 72.7051 129.443 66.1531 134.166C51.3817 144.723 39.7346 148.355 31.03 147.631C13.5502 146.643 7.22655 128.225 10.7653 110.654C12.7991 100.61 18.0452 90.846 26.2636 84.7521C35.2738 78.0703 51.1115 72.8364 56.2558 60.6055C60.169 51.5135 35.5968 39.4804 42.1335 22.2799C46.2916 11.2596 59.9004 6.50909 60.6075 -2.0335C61.3771 -11.332 61.4037 -18.949 60.8165 -23.3482Z" stroke="#D4D4D4" stroke-width="1.19883"/>
<path d="M65.7199 -16.6484C62.137 -40.6767 85.3257 -34.6499 90.0465 -22.3936C96.1276 -6.653 102.85 0.179005 115.186 7.81105C121.936 12.4002 123.63 -3.75699 134.874 -5.56687C146.118 -7.37674 150.468 9.14083 156.777 2.00365C166.403 -8.82015 175.331 -12.8887 182.514 -12.5028C189.623 -12.2374 195.069 -7.55616 197.783 -0.726906C200.315 5.66529 200.451 13.9328 197.306 22.2137C192.733 32.2325 187.743 39.7094 182.052 45.0576C174.59 51.3789 184.769 58.2887 183.29 73.0034C181.811 87.7182 170.569 87.2233 174.761 98.4805C181.403 116.16 183.238 128.578 182.009 136.704C179.614 154.208 163.272 152.244 150.104 139.837C142.489 132.747 137.021 125.933 132.203 120.523C125.745 112.693 117.244 127.669 109.075 127.453C94.8627 126.983 97.8281 109.882 85.8854 117.227C81.1375 120.122 75.8392 123.644 69.8726 127.879C56.2933 137.34 45.7106 140.294 37.9395 139.352C22.2334 138.381 16.5754 121.767 19.8014 105.922C21.6738 96.8322 26.4484 88.0022 33.9089 82.4817C42.3941 76.2019 56.8309 71.3515 61.4897 59.8374C65.0178 51.5376 42.8841 40.5773 48.7335 24.9786C52.4432 14.9274 64.6546 10.5039 65.3022 2.69772C66.0046 -5.77015 66.1342 -12.6827 65.7199 -16.6484Z" stroke="#D4D4D4" stroke-width="1.19883"/>
<path d="M70.4149 -10.2193C67.3536 -31.6131 88.1225 -26.2059 92.371 -15.1784C98.1761 -0.182034 104.593 5.75509 116.057 12.2727C122.129 16.3183 123.73 1.86747 133.831 0.189215C143.931 -1.48904 147.899 13.1459 153.586 6.79851C162.297 -2.82671 170.354 -6.35263 176.802 -5.87143C183.154 -5.57098 188.017 -1.30351 190.397 4.87436C192.616 10.6634 192.653 18.1203 189.681 25.5494C184.864 34.7317 181.139 42.9307 176.108 48.1029C169.481 53.8729 178.442 60.1013 176.995 73.2043C175.548 86.3073 165.377 85.8115 168.973 95.6979C174.731 111.28 176.258 122.184 175.072 129.297C172.87 144.796 158.199 142.96 146.317 131.886C139.377 125.541 134.313 119.495 129.82 114.82C123.979 107.913 116.309 121.308 108.919 121.204C96.1384 120.884 98.6558 105.739 87.9214 112.313C83.589 114.93 78.7802 118.08 73.3896 121.843C60.9814 130.242 51.4469 132.529 44.5973 131.366C30.6407 130.41 25.6398 115.539 28.558 101.361C30.2718 93.1932 34.5823 85.2651 41.2964 80.2981C49.2697 74.3979 62.3281 69.9136 66.5086 59.0754C69.6569 51.538 49.9278 41.6106 55.0987 27.5572C58.3658 18.4386 69.1986 14.3265 69.7877 7.22847C70.424 -0.439432 70.6569 -6.67253 70.4149 -10.2193Z" stroke="#D4D4D4" stroke-width="1.19883"/>
<path d="M75.316 -3.78962C72.7817 -22.5481 91.0941 -17.7605 94.8628 -7.96204C100.382 6.29134 106.481 11.3331 117.053 16.7355C122.437 20.2372 123.942 7.49324 132.881 5.94655C141.82 4.39985 145.399 17.1514 150.454 11.5941C158.235 3.16788 165.405 0.184948 171.108 0.761597C176.692 1.09725 180.962 4.95099 183.005 10.4774C184.907 15.6633 184.845 22.3094 182.051 28.8865C176.998 37.2325 174.546 46.1562 170.184 51.1531C164.402 56.3718 172.13 61.9188 170.717 73.4094C169.304 84.9 160.223 84.4033 163.217 92.9182C168.081 106.401 169.296 115.792 168.155 121.891C166.151 135.385 153.176 133.676 142.602 123.936C136.348 118.337 131.697 113.058 127.537 109.118C122.324 103.135 115.498 114.948 108.901 114.956C97.5743 114.786 99.6393 101.597 90.1323 107.402C86.223 109.741 81.9122 112.518 77.1073 115.809C65.8921 123.146 57.4227 124.765 51.5069 123.38C39.3246 122.439 34.9895 109.312 37.5948 96.8019C39.1469 89.5553 42.9857 82.5294 48.9416 78.116C56.3891 72.5949 68.0458 68.4766 71.7405 58.3136C74.5035 51.5385 57.214 42.6442 61.6973 30.1363C64.5159 21.9505 73.9507 18.1495 74.4803 11.7596C75.0495 4.8917 75.3852 -0.661886 75.316 -3.78962Z" stroke="#D4D4D4" stroke-width="1.19883"/>
<path d="M80.2074 2.94205C78.1999 -13.1393 94.0552 -8.98208 97.3439 -0.434508C102.575 13.0435 108.357 17.1787 118.036 21.454C122.731 24.4041 124.14 13.3955 131.917 11.9838C139.694 10.5722 142.884 21.4119 147.307 16.6571C154.157 9.44865 160.441 7.01532 165.398 7.68607C170.214 8.05614 173.891 11.4875 175.597 16.3501C177.182 20.9212 177.021 26.7416 174.406 32.4521C169.119 39.9429 167.936 49.5705 164.243 54.3807C159.307 59.0364 165.803 63.8896 164.424 73.7422C163.046 83.5948 155.054 83.0984 157.447 90.2228C161.417 101.577 162.321 109.434 161.225 114.504C159.419 125.964 148.141 124.386 138.874 116C133.308 111.16 129.07 106.661 125.244 103.465C120.659 98.4185 114.677 108.623 108.873 108.742C99.0008 108.723 100.613 97.5204 92.3343 102.543C88.8484 104.599 85.0358 106.996 80.8168 109.808C70.7955 116.066 63.3915 117.014 58.4093 115.411C48.0014 114.486 44.3321 103.132 46.6244 92.3184C48.0148 86.0098 51.3816 79.9017 56.579 76.0517C63.4996 70.9224 73.7542 67.1792 76.963 57.7145C79.3406 51.7169 64.491 43.8756 68.2866 32.9413C70.6568 25.7065 78.6938 22.2252 79.1638 16.5578C79.6657 10.5054 80.104 5.64372 80.2074 2.94205Z" stroke="#D4D4D4" stroke-width="1.19883"/>
<path d="M84.8977 9.37184C83.4128 -4.07283 96.844 -0.535586 99.6597 6.78258C104.615 19.5189 110.091 22.758 118.897 25.917C122.913 28.323 124.229 19.0219 130.86 17.7418C137.492 16.4617 140.299 25.4169 144.098 21.4526C150.032 15.4438 155.443 13.5539 159.664 14.3204C163.722 14.7258 166.814 17.7434 168.186 21.9543C169.458 25.9221 169.198 30.9315 166.755 35.7897C161.223 42.4442 161.309 52.7995 158.277 57.4349C154.177 61.5393 159.453 65.7109 158.106 73.9503C156.759 82.1898 149.84 81.6923 151.636 87.4443C154.721 96.6984 155.315 103.041 154.262 107.096C152.651 116.55 143.045 115.099 135.068 108.047C130.177 103.953 126.344 100.222 122.843 97.7619C118.876 93.6397 113.726 102.262 108.704 102.493C100.265 102.624 101.429 93.3792 94.3603 97.632C91.2905 99.4094 87.9682 101.433 84.3263 103.773C75.478 108.969 69.124 109.248 65.0651 107.423C56.4099 106.512 53.399 96.9028 55.3829 87.7575C56.6145 82.3709 59.5164 77.1653 63.9661 73.869C70.3743 69.1186 79.2481 65.7413 81.9776 56.9512C83.9748 51.716 71.5342 44.908 74.6501 35.5197C76.5768 29.2178 83.2325 26.0475 83.644 21.0884C84.0797 15.8362 84.6215 11.6542 84.8977 9.37184Z" stroke="#D4D4D4" stroke-width="1.19883"/>
<path d="M89.7909 15.8002C88.8324 4.99424 99.8041 7.91119 102.139 13.9994C106.805 25.9967 111.96 28.3385 119.87 30.3794C123.196 32.2407 124.416 24.6483 129.884 23.4996C135.352 22.3508 137.769 29.4199 140.935 26.2468C145.937 21.4386 150.46 20.0928 153.934 20.9556C157.223 21.3965 159.722 24.0003 160.757 27.5595C161.712 30.9238 161.354 35.1219 159.091 39.1273C153.328 44.9457 154.681 56.0342 152.319 60.496C149.065 64.0492 153.108 67.5389 151.796 74.1639C150.484 80.789 144.657 80.2902 145.852 84.6682C148.043 91.8202 148.327 96.6464 147.319 99.6847C145.906 107.131 137.999 105.807 131.332 100.09C127.13 96.7429 123.711 93.7803 120.546 92.0576C117.207 88.8605 112.903 95.8989 108.674 96.2426C101.692 96.5249 102.404 89.239 96.5647 92.7214C93.9192 94.2206 91.096 95.8711 88.0409 97.7378C80.3892 101.87 75.1019 101.479 71.977 99.4307C65.0973 98.5337 62.7525 90.67 64.4228 83.1945C65.4923 78.7304 67.9216 74.4278 71.6119 71.6856C77.4905 67.3133 84.9599 64.3016 87.203 56.1846C88.8145 51.7121 78.8156 45.9376 81.2436 38.096C82.7218 32.7272 87.9788 29.8675 88.3306 25.6168C88.6989 21.165 89.3427 17.6631 89.7909 15.8002Z" stroke="#D4D4D4" stroke-width="1.19883"/>
<path d="M94.5424 22.228C94.1061 14.0643 102.677 16.3603 104.545 21.2175C108.948 32.4796 113.813 33.9222 120.871 34.8422C123.525 36.1579 124.656 30.2762 128.99 29.2587C133.325 28.2412 135.365 33.4213 137.915 31.0403C142.013 27.4343 145.673 26.634 148.419 27.5938C150.957 28.0707 152.876 30.2606 153.579 33.1676C154.222 35.9282 153.763 39.3144 151.666 42.4661C145.638 47.4486 148.271 59.279 146.565 63.569C144.14 66.5709 146.971 69.3782 145.686 74.3867C144.402 79.3952 139.634 78.895 140.233 81.8966C141.541 86.9427 141.515 90.2501 140.547 92.2699C139.325 97.7053 133.074 96.5087 127.68 92.128C124.143 89.5281 121.12 87.3353 118.271 86.3513C115.543 84.0808 112.061 89.5338 108.603 89.9904C103.04 90.4244 103.303 85.1008 98.6607 87.812L98.5322 87.8822C96.3351 89.0817 94.0375 90.3361 91.6 91.7027C85.1021 94.7699 80.8529 93.7065 78.6456 91.4323C73.505 90.5489 71.8141 84.4326 73.1801 78.6287C74.0934 75.088 76.0634 71.6892 79.0144 69.5015C84.3972 65.5063 90.5032 62.8599 92.2721 55.4141C93.5065 51.7044 85.896 46.964 87.6488 40.6703C88.6861 36.2349 92.5721 33.6855 92.8662 30.1433C93.1692 26.4923 93.9192 23.6709 94.5424 22.228Z" stroke="#D4D4D4" stroke-width="1.19883"/>
<path d="M99.4238 28.968C99.5135 23.4822 105.618 25.1472 107.003 28.7518C111.11 39.2278 115.648 39.7651 121.801 39.5607C123.763 40.325 124.796 36.1798 127.963 35.2981C131.13 34.4164 132.778 37.6849 134.693 36.1066C137.854 33.7187 140.623 33.467 142.62 34.5195C144.387 35.0301 145.711 36.7965 146.077 39.0384C146.403 41.1829 145.845 43.7421 143.931 46.0264C137.682 50.1505 141.576 62.6685 140.541 66.7673C138.964 69.2045 140.56 71.3169 139.312 74.6869C138.064 78.0569 134.393 77.5575 134.392 79.1696C134.805 82.0881 134.469 83.8622 133.548 84.8549C132.526 88.2558 127.979 87.1914 123.9 84.1664C121.056 82.3255 118.451 80.9121 115.941 80.671C113.844 79.3369 111.211 83.1805 108.552 83.7479C104.449 84.3315 104.261 80.9935 100.852 82.9215C99.0432 83.8584 97.205 84.7555 95.3092 85.6693C90.015 87.6579 86.8366 85.9271 85.5647 83.4379C82.2037 82.572 81.1801 78.2302 82.2311 74.1235C82.9813 71.5218 84.4768 69.0419 86.6655 67.4184C91.5119 63.8184 96.2075 61.5491 97.4883 54.8081C98.3359 51.8777 93.1735 48.1924 94.2372 43.4745C94.8253 39.9924 97.3097 37.7646 97.5438 34.9468C97.7791 32.1129 98.6298 29.9845 99.4238 28.968Z" stroke="#D4D4D4" stroke-width="1.19883"/>
<path d="M104.377 35.4048C104.991 32.5778 108.647 33.617 109.554 35.9802C113.372 45.6937 117.591 45.3296 122.851 44.0036C124.127 44.2198 125.063 41.7975 127.072 41.0494C129.082 40.3013 130.341 41.6706 131.626 40.8894C133.86 39.7109 135.744 40.0058 136.998 41.1528C138 41.6981 138.734 43.0457 138.764 44.6291C138.775 46.1638 138.12 47.9038 136.384 49.3277C129.908 52.6047 135.061 65.8336 134.692 69.75C133.957 71.6292 134.327 73.0531 133.114 74.7964C131.902 76.5397 129.317 76.0401 128.717 76.2703C128.242 77.0734 127.597 77.3226 126.721 77.2934C125.896 78.6728 123.04 77.738 120.265 76.0584C118.106 74.9706 115.915 74.3312 113.738 74.8303C112.267 74.4272 110.476 76.6739 108.607 77.3529C105.954 78.0868 105.316 76.7216 103.131 77.8728C101.744 78.5286 100.403 79.0492 99.0911 79.4867C94.9881 80.4042 92.8715 78.0043 92.5289 75.2957C90.9347 74.4455 90.5738 71.864 91.3128 69.4411C91.9016 67.7703 92.9267 66.2014 94.3595 65.137C98.6782 61.9236 101.976 60.0258 102.773 53.9737C103.236 51.8144 100.504 49.1735 100.883 46.0171C101.025 43.4782 102.117 41.5666 102.292 39.4651C102.46 37.4401 103.412 35.9982 104.377 35.4048Z" stroke="#D4D4D4" stroke-width="1.19883"/>
</svg>
