<svg width="75" height="122" viewBox="0 0 75 122" fill="none" xmlns="http://www.w3.org/2000/svg">
<path d="M54.8201 -23.876C51.1957 -34.327 33.2653 -39.4879 36.2242 -18.679C36.7094 -15.267 36.7582 -9.39186 36.2242 -2.24063C35.7351 4.3103 26.1595 7.89479 23.2201 16.3593C18.6103 29.6342 35.8461 38.8868 33.1032 45.8652C29.5108 55.0051 18.511 58.9707 12.4268 63.9711C6.69905 68.6785 3.05067 76.2317 1.64983 83.9972C-0.807769 97.6207 3.65217 111.898 15.9379 112.608C22.088 112.964 30.1992 109.92 40.3855 101.692C44.9398 98.0131 48.9557 94.9814 52.5249 92.53C61.7112 86.2206 59.2414 101.145 70.1649 101.692C76.389 102.003 82.8897 89.1192 87.8108 95.9917C91.31 100.878 95.3255 106.808 101.06 112.904C111.131 123.609 123.722 125.185 125.503 109.906C126.343 102.694 124.775 91.7257 119.396 76.1888C115.953 66.2461 124.516 66.5965 125.503 53.8554C126.489 41.1142 118.422 35.2384 124.262 29.965L124.379 29.8594C128.83 25.8404 133.578 21.554 136.171 13.3211C138.404 6.2293 138.191 -0.794682 136.171 -6.19191C134.009 -11.9681 129.778 -15.8811 124.262 -16.0199C118.727 -16.1592 111.899 -12.4988 104.571 -3.10829C99.7393 3.083 96.4672 -11.3232 87.8108 -9.85053C79.1545 -8.37787 77.9514 5.52229 72.7657 1.49069C63.7578 -5.51251 59.0648 -11.6359 54.8201 -23.876Z" stroke="#D4D4D4"/>
<path d="M72.3049 33.1323C71.7533 31.5279 69.1828 31.949 69.0527 33.6878C68.9046 35.6676 69.8075 38.2475 69.7031 40.232C69.5016 44.0636 68.2803 45.1543 65.8484 47.1738C64.9767 47.8965 64.4215 49.056 64.2083 50.2481C63.8343 52.3396 64.513 54.5314 66.3827 54.6404C67.3187 54.695 68.5531 54.2277 70.1033 52.9646C70.7964 52.3998 71.4075 51.9344 71.9507 51.5581C74.3153 49.7887 76.516 51.1751 77.3207 52.0895C77.8533 52.8397 78.4644 53.7499 79.3371 54.6858C80.8697 56.3292 83.1906 56.1139 83.0569 54.2256C82.868 51.5581 78.7587 41.6009 83.0569 39.8646C85.0534 39.0581 84.9879 37.2312 84.6804 36.4026C84.3514 35.5159 83.7075 34.9152 82.868 34.8939C82.0258 34.8725 80.6305 36.4026 79.8714 36.876C77.0692 38.6235 74.5689 39.5269 72.3049 33.1323Z" stroke="#D4D4D4"/>
<path d="M39.217 -14.1268C36.591 -33.0702 52.9764 -28.348 56.2992 -18.767C60.3673 -7.05381 64.8647 -1.56414 73.3157 4.64981C78.0686 8.29648 79.2123 -4.39534 87.1384 -5.77481C95.0645 -7.15427 98.0926 5.91871 102.527 0.286724C109.272 -8.25497 115.543 -11.5311 120.608 -11.3244C125.641 -11.1607 129.499 -7.5407 131.449 -2.22573C133.269 2.74442 133.419 9.19437 131.296 15.683C128.526 23.3958 124.524 28.1965 120.461 32.1218C115.153 37.0048 122.444 42.3981 121.477 53.9979C120.511 65.5977 112.632 65.2466 115.695 74.2185C120.51 88.2698 121.881 98.1669 121.068 104.661C119.411 118.521 107.886 117.035 98.637 107.273C93.3332 101.705 89.5759 96.3195 86.2845 91.9534C81.7575 85.7346 75.7871 97.4988 70.0608 97.2663C60.0514 96.8257 62.2352 83.2864 53.8205 89.051C50.5167 91.3055 46.8133 94.073 42.6269 97.4175C33.1886 104.893 25.7467 107.465 20.1848 106.953C9.01604 106.253 4.97552 93.2105 7.23659 80.7677C8.53614 73.6548 11.8882 66.7403 17.1393 62.4248C22.8965 57.6931 33.016 53.9867 36.303 45.3254C38.8033 38.8868 23.1028 30.3656 27.2795 18.185C29.9363 10.3809 38.6317 7.01678 39.0835 0.96731C39.5753 -5.61746 39.5923 -11.0115 39.217 -14.1268Z" stroke="#D4D4D4"/>
<path d="M42.3499 -9.38174C40.0606 -26.3975 54.8771 -22.1295 57.8935 -13.4502C61.7791 -2.30343 66.0745 2.53468 73.9562 7.93934C78.2693 11.1892 79.3519 -0.252609 86.5362 -1.53428C93.7205 -2.81595 96.5002 8.88103 100.531 3.82681C106.681 -3.83811 112.387 -6.71929 116.976 -6.44596C121.518 -6.25804 124.998 -2.94301 126.732 1.89316C128.35 6.41981 128.437 12.2745 126.427 18.1386C123.505 25.2335 120.317 30.5283 116.681 34.3157C111.913 38.7921 118.417 43.6853 117.472 54.1056C116.527 64.5259 109.344 64.1754 112.022 72.1473C116.266 84.6671 117.438 93.4606 116.654 99.2157C115.123 111.611 104.681 110.22 96.2673 101.434C91.402 96.413 87.9082 91.588 84.8294 87.7565C80.7031 82.2118 75.2717 92.8175 70.0517 92.6646C60.9709 92.3316 62.8656 80.2216 55.2347 85.4224C52.2011 87.4725 48.8157 89.9669 45.0033 92.9662C36.3267 99.6658 29.5649 101.757 24.5995 101.091C14.5641 100.403 10.9489 88.638 13.0101 77.417C14.2065 70.98 17.2572 64.727 22.0241 60.8177C27.4458 56.3706 36.6703 52.9357 39.647 44.782C41.9013 38.9045 27.7589 31.1429 31.4964 20.0966C33.8667 12.9788 41.6692 9.84633 42.083 4.31832C42.5319 -1.67824 42.6147 -6.57336 42.3499 -9.38174Z" stroke="#D4D4D4"/>
<path d="M45.3497 -4.8293C43.3936 -19.9794 56.664 -16.1502 59.3786 -8.34108C63.0878 2.27866 67.1879 6.48306 74.5126 11.0985C78.3926 13.9634 79.4158 3.73002 85.8694 2.54156C92.323 1.3531 94.8585 11.7169 98.4921 7.22196C104.058 0.405821 109.206 -2.09107 113.326 -1.75031C117.385 -1.53754 120.492 1.48448 122.013 5.85936C123.431 9.95891 123.454 15.2395 121.555 20.5005C118.477 27.003 116.098 32.8091 112.883 36.4718C108.648 40.5579 114.374 44.9686 113.449 54.2475C112.525 63.5264 106.026 63.1753 108.324 70.1764C112.003 81.2106 112.978 88.9329 112.221 93.9698C110.814 104.946 101.44 103.645 93.8476 95.8034C89.4133 91.3102 86.1776 87.0286 83.3066 83.7176C79.5747 78.8266 74.6739 88.3123 69.9521 88.2385C61.7858 88.0118 63.3943 77.2867 56.5355 81.9427C53.7673 83.7959 50.6947 86.0262 47.2504 88.6913C39.3221 94.639 33.23 96.2584 28.8534 95.435C19.9358 94.7579 16.7404 84.2272 18.605 74.1871C19.7 68.4027 22.4543 62.7884 26.7443 59.271C31.8389 55.0927 40.1826 51.9171 42.8537 44.242C44.8653 38.9044 32.2594 31.8743 35.5633 21.9223C37.6509 15.465 44.5725 12.5529 44.9489 7.52644C45.3555 2.09638 45.5043 -2.31761 45.3497 -4.8293Z" stroke="#D4D4D4"/>
<path d="M48.4811 -0.276127C46.8618 -13.56 58.5626 -10.1697 60.9706 -3.23085C64.4968 6.86274 68.3944 10.4331 75.1492 14.2588C78.5892 16.7386 79.5511 7.71387 85.2626 6.61858C90.974 5.52328 93.261 14.5533 96.4907 10.6179C101.462 4.65085 106.044 2.53848 109.688 2.94683C113.256 3.18453 115.984 5.91357 117.29 9.82712C118.505 13.4995 118.465 18.206 116.68 22.8636C113.451 28.7738 111.884 35.0932 109.097 38.6317C105.403 42.3274 110.341 46.2555 109.438 54.3927C108.535 62.5298 102.732 62.178 104.646 68.2079C107.754 77.7559 108.53 84.4064 107.801 88.7248C106.521 98.2811 98.2301 97.0708 91.4736 90.1731C87.478 86.2081 84.5061 82.4701 81.8481 79.6799C78.5171 75.4429 74.1556 83.8083 69.9404 83.8137C62.7032 83.6935 64.0225 74.3538 57.948 78.4648C55.4502 80.1211 52.6957 82.0872 49.6257 84.418C42.4597 89.6136 37.0481 90.7602 33.2682 89.7798C25.4842 89.113 22.7143 79.8171 24.379 70.9581C25.3707 65.8265 27.8235 60.851 31.6291 57.7256C36.3876 53.8159 43.8358 50.8994 46.1965 43.7025C47.9619 38.9047 36.9148 32.6061 39.7793 23.7487C41.5803 17.9518 47.6088 15.2601 47.9471 10.7351C48.3108 5.87158 48.5253 1.93879 48.4811 -0.276127Z" stroke="#D4D4D4"/>
<path d="M51.6113 4.4915C50.3286 -6.89655 60.4594 -3.95262 62.5608 2.10037C65.9034 11.6449 69.5979 14.5733 75.7821 17.6008C78.7819 19.69 79.6825 11.8941 84.6516 10.8945C89.6207 9.89479 91.6589 17.571 94.4846 14.2039C98.8616 9.09917 102.877 7.376 106.044 7.85099C109.121 8.11306 111.471 10.543 112.561 13.9864C113.574 17.2235 113.471 21.3452 111.8 25.3891C108.421 30.6938 107.666 37.5116 105.306 40.9179C102.152 44.2149 106.303 47.6517 105.422 54.6289C104.541 61.6061 99.4348 61.2545 100.964 66.2997C103.5 74.3402 104.078 79.9041 103.378 83.4945C102.224 91.6099 95.0175 90.4925 89.0968 84.5542C85.5403 81.1264 82.8325 77.9402 80.3877 75.677C77.4578 72.1035 73.6358 79.33 69.9273 79.4145C63.6194 79.4009 64.6499 71.4675 59.3598 75.0244C57.1325 76.48 54.6964 78.1776 52.0007 80.1688C45.5975 84.6008 40.8667 85.2722 37.6833 84.1371C31.0331 83.482 28.6887 75.4417 30.1533 67.7837C31.0417 63.3162 33.193 58.9908 36.5139 56.2644C40.9358 52.632 47.488 49.9813 49.5383 43.2788C51.0575 39.0316 41.5692 33.4787 43.9945 25.7356C45.5089 20.6122 50.6442 18.1469 50.9445 14.1336C51.2652 9.84748 51.5452 6.40469 51.6113 4.4915Z" stroke="#D4D4D4"/>
<path d="M54.608 9.04472C53.6593 -0.476179 62.2412 2.02873 64.0403 7.21112C67.2064 16.2304 70.7055 18.5242 76.3319 20.7612C78.8978 22.4651 79.739 15.8785 83.9761 14.9719C88.2132 14.0654 90.0068 20.4071 92.4344 17.5998C96.226 13.3446 99.6831 12.0063 102.38 12.549C104.973 12.8361 106.949 14.973 107.826 17.955C108.638 20.7649 108.472 24.3123 106.911 27.7526C103.376 32.465 103.431 39.7982 101.494 43.0807C98.8741 45.9873 102.246 48.9414 101.385 54.7762C100.524 60.611 96.1033 60.2587 97.251 64.332C99.2218 70.8854 99.6017 75.3768 98.9287 78.2482C97.8991 84.943 91.7617 83.9158 86.6645 78.9221C83.5397 76.0227 81.0904 73.3804 78.8536 71.6385C76.3188 68.7194 73.0283 74.8251 69.8189 74.9889C64.4272 75.0819 65.1708 68.5348 60.6542 71.5465C58.6927 72.8052 56.5699 74.2384 54.243 75.8951C48.5893 79.5746 44.5294 79.7726 41.9359 78.48C36.4057 77.835 34.4818 71.0301 35.7494 64.5538C36.5364 60.7393 38.3906 57.0529 41.2337 54.7187C45.3283 51.3546 50.9982 48.963 52.7423 42.7382C54.0184 39.0309 46.0694 34.2098 48.0603 27.5614C49.2914 23.0987 53.5441 20.8536 53.807 17.3418C54.0854 13.6225 54.4316 10.661 54.608 9.04472Z" stroke="#D4D4D4"/>
<path d="M57.7344 13.5966C57.122 5.94436 64.1324 8.01001 65.6244 12.3214C68.6055 20.8173 71.8996 22.4757 76.9533 23.9209C79.0785 25.239 79.858 19.8625 83.3518 19.049C86.8457 18.2355 88.39 23.2415 90.4131 20.9944C93.6091 17.5895 96.499 16.6365 98.7189 17.2474C100.821 17.5597 102.417 19.4036 103.079 21.924C103.689 24.3065 103.46 27.2794 102.014 30.1158C98.3317 34.2361 99.1965 42.0885 97.687 45.2482C95.6077 47.7643 98.1913 50.2356 97.3529 54.9271C96.5145 59.6187 92.7912 59.2655 93.5549 62.3658C94.9547 67.4305 95.136 70.8482 94.4921 72.9998C93.5894 78.2728 88.5373 77.3356 84.2771 73.2871C81.5922 70.9165 79.408 68.8186 77.3852 67.5986C75.2521 65.3346 72.5019 70.3189 69.8001 70.5622C65.3389 70.7622 65.7937 65.6026 62.0626 68.0687C60.3722 69.1303 58.5683 70.2991 56.6162 71.621C51.7271 74.5473 48.3488 74.2707 46.3521 72.8199C41.9564 72.1847 40.4581 66.616 41.5254 61.3222C42.2087 58.1609 43.761 55.114 46.1189 53.1721C49.875 50.0758 54.6476 47.9431 56.0809 42.195C57.1105 39.0278 50.7217 34.9385 52.2731 29.3855C53.2176 25.5835 56.5766 23.5585 56.8014 20.5483C57.0367 17.3957 57.4481 14.9158 57.7344 13.5966Z" stroke="#D4D4D4"/>
<path d="M60.7674 18.1482C60.4886 12.367 65.9653 13.9929 67.1584 17.4325C69.9718 25.4078 73.0804 26.4295 77.59 27.081C79.2861 28.0127 80.0083 23.8475 82.7779 23.127C85.5475 22.4064 86.8512 26.0747 88.4808 24.3887C91.0989 21.835 93.4373 21.2683 95.192 21.948C96.8138 22.2857 98.0398 23.8365 98.4894 25.8951C98.9002 27.85 98.6064 30.2479 97.2669 32.4799C93.4153 36.0082 95.0973 44.386 94.0076 47.424C92.4579 49.5497 94.267 51.5377 93.4461 55.0845C92.6252 58.6313 89.5789 58.2771 89.962 60.4027C90.7975 63.9762 90.7809 66.3182 90.1623 67.7486C89.3813 71.5977 85.3872 70.7503 81.9406 67.6481C79.6808 65.807 77.7492 64.2541 75.929 63.5574C74.1859 61.9495 71.9609 65.811 69.7518 66.1344C66.1968 66.4417 66.3648 62.6718 63.3988 64.5917L63.3163 64.6417C61.9126 65.491 60.4447 66.3793 58.8874 67.3469C54.7355 69.519 52.0205 68.766 50.6101 67.1555C47.3255 66.5299 46.2451 62.1986 47.1179 58.0886C47.7015 55.5812 48.9602 53.1743 50.8458 51.6251C54.2851 48.7959 58.1866 46.9218 59.3168 41.649C60.1055 39.022 55.2428 35.665 56.3627 31.2081C57.0255 28.0672 59.5085 26.2618 59.6964 23.7534C59.89 21.168 60.3692 19.17 60.7674 18.1482Z" stroke="#D4D4D4"/>
<path d="M63.8863 22.9217C63.9436 19.0369 67.8438 20.216 68.7287 22.7686C71.3534 30.1872 74.2529 30.5677 78.1844 30.4229C79.4382 30.9642 80.0978 28.0288 82.1216 27.4044C84.1454 26.78 85.1983 29.0946 86.4218 27.9769C88.4417 26.2859 90.2106 26.1077 91.4865 26.853C92.6156 27.2146 93.4616 28.4655 93.6955 30.0531C93.9036 31.5717 93.5474 33.3841 92.3243 35.0016C88.3316 37.9222 90.8194 46.7868 90.158 49.6894C89.1504 51.4153 90.1705 52.9112 89.3732 55.2977C88.5758 57.6842 86.23 57.3305 86.2291 58.4722C86.4936 60.5389 86.2788 61.7952 85.6901 62.4982C85.0369 64.9066 82.1318 64.1528 79.5256 62.0106C77.7081 60.707 76.0438 59.7061 74.4399 59.5354C73.1003 58.5907 71.4178 61.3125 69.7185 61.7143C67.0973 62.1275 66.9769 59.7637 64.7991 61.1291C63.6431 61.7925 62.4686 62.4278 61.2572 63.0749C57.8745 64.4832 55.8436 63.2575 55.031 61.4947C52.8834 60.8816 52.2294 57.8069 52.9009 54.8988C53.3803 53.0563 54.3358 51.3002 55.7343 50.1505C58.831 47.6011 61.8312 45.9941 62.6496 41.2204C63.1912 39.1453 59.8926 36.5355 60.5723 33.1945C60.9481 30.7287 62.5355 29.151 62.685 27.1556C62.8354 25.1487 63.379 23.6415 63.8863 22.9217Z" stroke="#D4D4D4"/>
<path d="M67.0512 27.4796C67.4431 25.4776 69.7793 26.2136 70.3586 27.887C72.7987 34.7657 75.4939 34.5079 78.8548 33.5689C79.6701 33.722 80.2681 32.0066 81.5522 31.4768C82.8363 30.9471 83.6411 31.9167 84.4619 31.3635C85.8891 30.529 87.0934 30.7378 87.8944 31.55C88.5347 31.9362 89.0035 32.8905 89.023 34.0118C89.0297 35.0986 88.6109 36.3308 87.5022 37.3392C83.364 39.6598 86.6568 49.0278 86.421 51.8013C85.9514 53.132 86.1876 54.1404 85.4128 55.3749C84.6379 56.6094 82.9862 56.2556 82.6033 56.4186C82.2997 56.9874 81.8874 57.1638 81.3278 57.1431C80.8009 58.12 78.9759 57.458 77.2028 56.2686C75.8233 55.4982 74.423 55.0455 73.0323 55.3989C72.0926 55.1134 70.9478 56.7044 69.7537 57.1853C68.0585 57.705 67.651 56.7383 66.2549 57.5534C65.3687 58.0179 64.5117 58.3865 63.6735 58.6964C61.0519 59.3461 59.6995 57.6466 59.4806 55.7285C58.4619 55.1264 58.2314 53.2983 58.7035 51.5825C59.0798 50.3993 59.7347 49.2883 60.6503 48.5346C63.4097 46.259 65.5168 44.915 66.0258 40.6292C66.3222 39.1001 64.5762 37.23 64.8185 34.9947C64.9092 33.1968 65.6072 31.8431 65.7189 30.3549C65.8264 28.9209 66.4347 27.8998 67.0512 27.4796Z" stroke="#D4D4D4"/>
</svg>
