<svg width="68" height="59" viewBox="0 0 68 59" fill="none" xmlns="http://www.w3.org/2000/svg">
<path d="M2.38776 30.5233C-5.918 0.425837 24.8496 -2.63772 47.0536 6.45014C60.0087 11.1239 68.5164 -3.41116 84.5652 2.3896C100.614 8.19036 81.3748 26.4628 105.931 35.8407C130.488 45.2186 118.5 87.1773 97.0368 87.6607C75.574 88.1441 81.4715 95.2017 60.0087 111.347C38.5459 127.493 2.38781 105.063 11.379 81.3766C20.3701 57.6902 11.3789 63.1042 2.38776 30.5233Z" stroke="#D4D4D4"/>
<path d="M48.5764 53.9463C47.6181 51.0797 52.1068 46.4552 55.7161 48.4288C59.0213 50.2361 62.387 49.0172 64.6106 49.8229C70.4646 51.944 68.3113 53.0668 70.9282 55.586C74.1126 58.6516 75.6321 66.6789 68.3113 66.6789C62.2903 66.6789 64.0919 69.6032 59.5833 70.8989C55.0747 72.1947 49.9617 69.9891 49.9617 64.1822C49.9617 62.0015 50.1726 58.7208 48.5764 53.9463Z" stroke="#D4D4D4"/>
<path d="M6.58543 32.5065C-1.05237 4.88461 27.3263 1.67915 47.8399 10.1203C59.9176 14.5334 67.9579 1.20893 82.7499 6.55559C97.8718 12.0218 80.186 28.7352 102.748 37.4896C125.362 46.2936 114.601 85.1677 94.4241 85.6072C74.3651 86.0466 79.8902 92.7285 59.9687 107.524C40.0472 122.319 6.71141 101.728 14.8852 79.6673C23.059 57.936 14.9043 62.5596 6.58543 32.5065Z" stroke="#D4D4D4"/>
<path d="M10.7831 34.4898C3.81327 9.34347 29.8029 5.99609 48.6261 13.7905C59.8266 17.943 67.3994 5.8291 80.9345 10.7217C95.1297 15.8534 78.9971 31.0077 99.5646 39.1386C120.235 47.3688 110.703 83.1582 91.8114 83.5537C73.1562 83.9492 78.309 90.2553 59.9288 103.701C41.5485 117.146 11.035 98.3938 18.3914 77.9582C25.7479 58.1819 18.4297 62.015 10.7831 34.4898Z" stroke="#D4D4D4"/>
<path d="M14.9809 36.4733C8.67894 13.8024 32.2796 10.3131 49.4123 17.4608C59.7356 21.3528 66.841 10.4494 79.1192 14.8879C92.3876 19.6851 77.8082 33.2803 96.3812 40.7877C115.109 48.444 106.805 81.1488 89.1988 81.5003C71.9474 81.8519 76.7278 87.7822 59.8888 99.8778C43.0499 111.973 15.3587 95.0593 21.8977 76.2491C28.4367 58.4279 21.9552 61.4706 14.9809 36.4733Z" stroke="#D4D4D4"/>
<path d="M19.1786 38.4569C13.5446 18.2615 34.7563 14.6304 50.1986 21.1312C59.6446 24.7626 66.2825 15.0698 77.304 19.0542C89.6455 23.5169 76.6194 35.5531 93.1979 42.4369C109.983 49.5194 102.906 79.1395 86.5862 79.4471C70.7386 79.7547 75.1466 85.3093 59.8489 96.0548C44.5513 106.8 19.6824 91.725 25.404 74.5402C31.1257 58.674 25.4806 60.9263 19.1786 38.4569Z" stroke="#D4D4D4"/>
<path d="M23.3842 40.5409C18.4182 22.8211 37.2409 19.048 50.9928 24.9022C59.5615 28.273 65.7319 19.7907 75.4966 23.321C86.9113 27.4492 75.4385 37.9263 90.0224 44.1866C104.864 50.6953 99.016 77.2307 83.9814 77.4943C69.5376 77.758 73.5733 82.9369 59.8169 92.3324C46.0606 101.728 24.0139 88.4911 28.9182 72.9318C33.8225 59.0207 29.014 60.4825 23.3842 40.5409Z" stroke="#D4D4D4"/>
<path d="M27.5821 42.7438C23.284 27.4996 39.7177 23.5845 51.7792 28.7919C59.4706 31.9021 65.1736 24.6304 73.6814 27.7066C84.1694 31.5003 74.2498 40.4184 86.8392 46.0552C99.7382 51.99 95.1178 75.4407 81.3689 75.6604C68.3289 75.8801 71.9922 80.6832 59.7772 88.7288C47.5621 96.7744 28.3377 85.3761 32.4246 71.4422C36.5115 59.4861 32.5396 60.1576 27.5821 42.7438Z" stroke="#D4D4D4"/>
<path d="M31.7801 44.9534C28.15 32.1846 42.1946 28.1277 52.5657 32.6883C59.3799 35.538 64.6154 29.4768 71.8664 32.0989C81.4275 35.5581 73.0612 42.9171 83.6561 47.9304C94.6122 53.2913 91.2198 73.6574 78.7565 73.8331C67.1203 74.0089 70.4112 78.4363 59.7375 85.1319C49.0637 91.8275 32.6616 82.2677 35.9311 69.9592C39.2007 59.9583 36.0653 59.8392 31.7801 44.9534Z" stroke="#D4D4D4"/>
<path d="M35.9782 47.1715C33.016 36.8783 44.6717 32.6794 53.3523 36.5933C59.2893 39.1823 64.0574 34.3318 70.0515 36.4998C78.6858 39.6245 71.8728 45.4244 80.4732 49.8142C89.4863 54.6013 87.3219 71.8826 76.1442 72.0144C65.9118 72.1463 68.8304 76.1978 59.698 81.5435C50.5655 86.8892 36.9857 79.1679 39.4378 68.4848C41.89 60.4389 39.5912 59.5295 35.9782 47.1715Z" stroke="#D4D4D4"/>
<path d="M40.1767 49.4045C37.8824 41.5869 47.1491 37.2461 54.1393 40.5132C59.199 42.8417 63.4996 39.2017 68.2369 40.9156C75.9445 43.7058 70.6847 47.9467 77.2906 51.7129C84.3608 55.9261 83.4243 70.1228 73.5323 70.2107C64.7037 70.2986 67.25 73.9744 59.6588 77.9701C52.0676 81.9658 41.3101 76.0831 42.9448 67.0254C44.5796 60.9346 43.1173 59.2347 40.1767 49.4045Z" stroke="#D4D4D4"/>
<path d="M44.3757 51.6599C42.7495 46.3177 49.6271 41.8351 54.9269 44.4555C59.1093 46.5233 62.9425 44.0939 66.4229 45.3537C73.2037 47.8094 69.4972 50.4912 74.1085 53.6339C79.2358 57.2733 79.5274 68.3853 70.921 68.4292C63.4962 68.4732 65.6701 71.7733 59.6202 74.419C53.5704 77.0647 45.6351 73.0205 46.4524 65.5882C47.2698 61.4525 46.6441 58.9622 44.3757 51.6599Z" stroke="#D4D4D4"/>
</svg>
