<svg width="268" height="68" viewBox="0 0 268 68" fill="none" xmlns="http://www.w3.org/2000/svg">
<g clip-path="url(#clip0_2142_2357)">
<path d="M-43.5 0C-25.7438 0 -25.7438 18 -7.9875 18C9.76875 18 9.76875 0 27.525 0C45.2812 0 45.2812 18 62.9959 18C80.7527 18 80.7527 0 98.4668 0C116.223 0 116.223 18 133.938 18C151.694 18 151.694 0 169.449 0C187.206 0 187.206 18 204.963 18C222.718 18 222.718 0 240.475 0C258.231 0 258.231 18 275.988 18C293.743 18 293.743 0 311.5 0" stroke="#99B080" stroke-width="3" stroke-miterlimit="10" stroke-linecap="round"/>
<path d="M-43.5 50C-25.7438 50 -25.7438 68 -7.9875 68C9.76875 68 9.76875 50 27.525 50C45.2812 50 45.2812 68 62.9959 68C80.7527 68 80.7527 50 98.4668 50C116.223 50 116.223 68 133.938 68C151.694 68 151.694 50 169.449 50C187.206 50 187.206 68 204.963 68C222.718 68 222.718 50 240.475 50C258.231 50 258.231 68 275.988 68C293.743 68 293.743 50 311.5 50" stroke="#99B080" stroke-width="3" stroke-miterlimit="10" stroke-linecap="round"/>
</g>
<defs>
<clipPath id="clip0_2142_2357">
<rect width="268" height="68" fill="white"/>
</clipPath>
</defs>
</svg>
